<?xml version="1.0" encoding="UTF-8" standalone="no"?>
<!-- Created with Inkscape (http://www.inkscape.org/) -->

<svg
   xmlns:dc="http://purl.org/dc/elements/1.1/"
   xmlns:cc="http://creativecommons.org/ns#"
   xmlns:rdf="http://www.w3.org/1999/02/22-rdf-syntax-ns#"
   xmlns:svg="http://www.w3.org/2000/svg"
   xmlns="http://www.w3.org/2000/svg"
   xmlns:sodipodi="http://sodipodi.sourceforge.net/DTD/sodipodi-0.dtd"
   xmlns:inkscape="http://www.inkscape.org/namespaces/inkscape"
   version="1.1"
   id="svg815"
   xml:space="preserve"
   width="1066.6667"
   height="800"
   viewBox="0 0 1066.6667 800"
   sodipodi:docname="logo-flat.svg"
   inkscape:version="0.92.2 (5c3e80d, 2017-08-06)"><metadata
     id="metadata821"><rdf:RDF><cc:Work
         rdf:about=""><dc:format>image/svg+xml</dc:format><dc:type
           rdf:resource="http://purl.org/dc/dcmitype/StillImage" /><dc:title></dc:title></cc:Work></rdf:RDF></metadata><defs
     id="defs819"><linearGradient
       x1="0"
       y1="0"
       x2="1"
       y2="0"
       gradientUnits="userSpaceOnUse"
       gradientTransform="matrix(0,-10.127655,-10.127655,0,7430.4531,7292.3721)"
       spreadMethod="pad"
       id="linearGradient841"><stop
         style="stop-opacity:1;stop-color:#f7931e"
         offset="0"
         id="stop837" /><stop
         style="stop-opacity:1;stop-color:#ed1c24"
         offset="1"
         id="stop839" /></linearGradient><clipPath
       clipPathUnits="userSpaceOnUse"
       id="clipPath851"><path
         d="M 0,14400 H 14400 V 0 H 0 Z"
         id="path849"
         inkscape:connector-curvature="0" /></clipPath><linearGradient
       x1="0"
       y1="0"
       x2="1"
       y2="0"
       gradientUnits="userSpaceOnUse"
       gradientTransform="matrix(8.7481995,118.58122,118.58122,-8.7481995,7406.9375,7166.3105)"
       spreadMethod="pad"
       id="linearGradient889"><stop
         style="stop-opacity:1;stop-color:#2b98d8"
         offset="0"
         id="stop881" /><stop
         style="stop-opacity:1;stop-color:#2b98d8"
         offset="0.12204"
         id="stop883" /><stop
         style="stop-opacity:1;stop-color:#a10b0b"
         offset="0.385834"
         id="stop885" /><stop
         style="stop-opacity:1;stop-color:#a10b0b"
         offset="1"
         id="stop887" /></linearGradient><linearGradient
       x1="0"
       y1="0"
       x2="1"
       y2="0"
       gradientUnits="userSpaceOnUse"
       gradientTransform="matrix(8.6091309,116.69611,116.69611,-8.6091309,7425.6563,7165.2324)"
       spreadMethod="pad"
       id="linearGradient913"><stop
         style="stop-opacity:1;stop-color:#2b98d8"
         offset="0"
         id="stop905" /><stop
         style="stop-opacity:1;stop-color:#2b98d8"
         offset="0.12204"
         id="stop907" /><stop
         style="stop-opacity:1;stop-color:#a10b0b"
         offset="0.385834"
         id="stop909" /><stop
         style="stop-opacity:1;stop-color:#a10b0b"
         offset="1"
         id="stop911" /></linearGradient><linearGradient
       x1="0"
       y1="0"
       x2="1"
       y2="0"
       gradientUnits="userSpaceOnUse"
       gradientTransform="matrix(8.6091614,116.69659,116.69659,-8.6091614,7423.7529,7165.374)"
       spreadMethod="pad"
       id="linearGradient937"><stop
         style="stop-opacity:1;stop-color:#2b98d8"
         offset="0"
         id="stop929" /><stop
         style="stop-opacity:1;stop-color:#2b98d8"
         offset="0.12204"
         id="stop931" /><stop
         style="stop-opacity:1;stop-color:#a10b0b"
         offset="0.385834"
         id="stop933" /><stop
         style="stop-opacity:1;stop-color:#a10b0b"
         offset="1"
         id="stop935" /></linearGradient><linearGradient
       x1="0"
       y1="0"
       x2="1"
       y2="0"
       gradientUnits="userSpaceOnUse"
       gradientTransform="matrix(7.0945892,96.166519,96.166519,-7.0945892,7423.3477,7178.291)"
       spreadMethod="pad"
       id="linearGradient961"><stop
         style="stop-opacity:1;stop-color:#2b98d8"
         offset="0"
         id="stop953" /><stop
         style="stop-opacity:1;stop-color:#2b98d8"
         offset="0.12204"
         id="stop955" /><stop
         style="stop-opacity:1;stop-color:#a10b0b"
         offset="0.385834"
         id="stop957" /><stop
         style="stop-opacity:1;stop-color:#a10b0b"
         offset="1"
         id="stop959" /></linearGradient><linearGradient
       x1="0"
       y1="0"
       x2="1"
       y2="0"
       gradientUnits="userSpaceOnUse"
       gradientTransform="matrix(8.6422424,117.1449,117.1449,-8.6422424,7436.8232,7164.0752)"
       spreadMethod="pad"
       id="linearGradient985"><stop
         style="stop-opacity:1;stop-color:#2b98d8"
         offset="0"
         id="stop977" /><stop
         style="stop-opacity:1;stop-color:#2b98d8"
         offset="0.12204"
         id="stop979" /><stop
         style="stop-opacity:1;stop-color:#a10b0b"
         offset="0.385834"
         id="stop981" /><stop
         style="stop-opacity:1;stop-color:#a10b0b"
         offset="1"
         id="stop983" /></linearGradient><clipPath
       clipPathUnits="userSpaceOnUse"
       id="clipPath995"><path
         d="M 0,14400 H 14400 V 0 H 0 Z"
         id="path993"
         inkscape:connector-curvature="0" /></clipPath><clipPath
       clipPathUnits="userSpaceOnUse"
       id="clipPath1523"><path
         d="M 7375.47,7344.12 H 7485 v -111.31 h -109.53 z"
         id="path1521"
         inkscape:connector-curvature="0" /></clipPath></defs><sodipodi:namedview
     pagecolor="#ffffff"
     bordercolor="#666666"
     borderopacity="1"
     objecttolerance="10"
     gridtolerance="10"
     guidetolerance="10"
     inkscape:pageopacity="0"
     inkscape:pageshadow="2"
     inkscape:window-width="1920"
     inkscape:window-height="1017"
     id="namedview817"
     showgrid="false"
     inkscape:zoom="1.08375"
     inkscape:cx="533.33337"
     inkscape:cy="400"
     inkscape:window-x="-8"
     inkscape:window-y="-8"
     inkscape:window-maximized="1"
     inkscape:current-layer="g823" /><g
     id="g823"
     inkscape:groupmode="layer"
     inkscape:label="logo-flat"
     transform="matrix(1.3333333,0,0,-1.3333333,-9067.3333,9999.3333)"><g
       id="g825"><g
         id="g827"><g
           id="g833"><g
             id="g835"><path
               d="m 7439.544,7277.035 h -18.181 v 15.375 l 9.254,2.927 8.927,-2.195 z"
               style="fill:url(#linearGradient841);stroke:none"
               id="path843"
               inkscape:connector-curvature="0" /></g></g></g></g><g
       id="g845"><g
         id="g847"
         clip-path="url(#clipPath851)"><g
           id="g853"
           transform="translate(6965.542,7256.6719)"><path
             d="m 0,0 c 3.911,-1.085 7.605,-1.303 11.298,-1.303 16.73,0 26.941,12.818 26.941,26.506 0,12.383 -5.649,18.902 -19.989,18.902 H 9.56 Z m 20.206,68.003 c 30.852,0 48.015,-16.728 48.015,-40.193 0,-27.374 -23.465,-51.924 -55.837,-51.924 -3.91,0 -11.732,0.433 -17.163,1.738 l -9.343,-44.102 H -44.974 L -15.86,68.003 Z"
             style="fill:#3297d4;fill-opacity:1;fill-rule:nonzero;stroke:none"
             id="path855"
             inkscape:connector-curvature="0" /></g><g
           id="g857"
           transform="translate(7075.248,7338.3628)"><path
             d="m 0,0 c 1.521,-10.428 0.217,-22.16 -1.956,-32.807 l -6.735,-29.765 c 11.733,11.299 22.813,15.861 32.155,15.861 17.382,0 24.986,-13.687 24.986,-31.72 0,-19.336 -8.908,-46.926 -21.292,-74.299 l -26.289,8.255 c 10.429,24.55 18.902,48.011 18.902,61.046 0,6.302 -2.391,11.08 -7.388,11.08 -7.386,0 -22.812,-9.993 -30.85,-34.325 l -9.126,-41.494 h -28.896 l 26.723,118.403 c 1.956,9.343 3.26,16.077 3.477,28.462 z"
             style="fill:#3297d4;fill-opacity:1;fill-rule:nonzero;stroke:none"
             id="path859"
             inkscape:connector-curvature="0" /></g><g
           id="g861"
           transform="translate(7183.1313,7269.2729)"><path
             d="m 0,0 c -14.339,0 -33.025,-25.419 -33.025,-47.144 0,-4.344 1.304,-9.123 7.17,-9.123 9.126,0 25.203,15.424 30.417,28.241 2.825,7.605 5.649,18.249 6.518,24.551 C 8.255,-1.303 4.344,0 0,0 m 2.173,-79.079 c -1.304,3.911 -1.956,8.691 -2.39,15.208 -11.95,-12.6 -23.899,-17.813 -33.677,-17.813 -21.509,0 -26.506,16.292 -26.506,29.546 0,36.496 28.897,74.3 60.183,74.3 15.86,0 27.809,-5.215 41.062,-17.383 L 29.331,-45.839 c -3.26,-15.207 -2.608,-27.808 -2.826,-33.24 z"
             style="fill:#3297d4;fill-opacity:1;fill-rule:nonzero;stroke:none"
             id="path863"
             inkscape:connector-curvature="0" /></g><g
           id="g865"
           transform="translate(7258.5498,7290.1304)"><path
             d="m 0,0 c 1.086,-8.038 0.435,-16.729 -0.652,-24.985 11.732,18.032 21.073,26.29 34.109,26.29 3.259,0 6.519,-0.653 10.646,-2.174 l -4.127,-29.548 c -2.174,0.652 -5.215,0.871 -7.17,0.871 -18.467,0.216 -38.021,-25.421 -43.669,-50.186 l -4.128,-20.204 h -28.895 l 14.121,70.171 c 1.955,9.125 3.694,15.861 3.476,28.245 z"
             style="fill:#3297d4;fill-opacity:1;fill-rule:nonzero;stroke:none"
             id="path867"
             inkscape:connector-curvature="0" /></g></g></g><g
       id="g869"><g
         id="g871"><g
           id="g877"><g
             id="g879"><path
               d="m 7408.333,7185.245 c 0,0.01 0,0.01 0,0.018 v 0 c 0,-0.01 0,-0.011 0,-0.018 m 0,0 c 0,0 0,0 0,0 v 0 c 0,0 0,0 0,0"
               style="fill:url(#linearGradient889);stroke:none"
               id="path891"
               inkscape:connector-curvature="0" /></g></g></g></g><g
       id="g893"><g
         id="g895"><g
           id="g901"><g
             id="g903"><path
               d="m 7430.707,7214.323 c -16.27,-7.586 -20.3,-9.671 -20.773,-14.326 v 0 c -0.409,-4.008 -1.345,-12.46 -1.598,-14.734 v 0 c 0.311,1.243 1.992,4.431 10.622,9.122 v 0 c 11.282,6.133 29.352,11.232 28.915,17.647 v 0 c -0.434,6.414 -1.648,14.875 -1.648,14.875 v 0 c 0,0 0.752,-4.991 -15.518,-12.584"
               style="fill:url(#linearGradient913);stroke:none"
               id="path915"
               inkscape:connector-curvature="0" /></g></g></g></g><g
       id="g917"><g
         id="g919"><g
           id="g925"><g
             id="g927"><path
               d="m 7432.459,7241.637 c -12.03,-5.79 -17.943,-8.713 -18.796,-14.936 v 0 c -0.856,-6.223 -1.778,-12.338 -1.778,-12.338 v 0 c 0.745,4.481 9.469,9.757 18.203,14.007 v 0 c 8.739,4.243 14.995,7 14.586,11.605 v 0 c -0.361,4.112 -1.236,9.775 -1.42,10.939 v 0 c 0.061,-0.868 -0.455,-4.304 -10.795,-9.277"
               style="fill:url(#linearGradient937);stroke:none"
               id="path939"
               inkscape:connector-curvature="0" /></g></g></g></g><g
       id="g941"><g
         id="g943"><g
           id="g949"><g
             id="g951"><path
               d="m 7426.941,7283.97 c -4.969,-0.354 -9.494,-2.392 -9.494,-2.392 v 0 -4.308 c 0,0 -0.022,-1.091 2.103,-1.8 v 0 l 0.101,-4.369 c -5.775,-0.759 -9.63,-2.045 -9.605,-3.444 v 0 c 0,-0.35 1.796,-2.895 1.796,-2.895 v 0 c 0,0 0.621,-0.769 1.373,-0.878 v 0 c 0.748,-0.108 2.06,-0.762 2.91,-1.456 v 0 c 0.856,-0.694 1.561,-2.02 1.575,-2.953 v 0 c 0.014,-0.929 0.958,-1.677 2.096,-1.659 v 0 l 2.71,0.04 c -3.248,-1.847 -4.278,-3.805 -5.243,-5.168 v 0 c -0.994,-1.395 -1.825,-13.44 -1.825,-13.44 v 0 c 0,0 0.455,1.214 2.306,4.084 v 0 c 1.85,2.866 9.172,6.809 14.679,9.801 v 0 c 4.622,2.515 8.818,5.005 8.818,5.005 v 0 c 1.073,0.625 2.038,1.142 2.038,2.064 v 0 c 0,1.116 0.47,2.465 1.081,2.988 v 0 c 0.611,0.532 1.72,1.066 2.472,1.2 v 0 c 0.744,0.13 1.344,0.922 1.344,0.922 v 0 c 0,0 1.713,2.598 1.706,2.949 v 0 c -0.018,1.333 -3.552,2.453 -8.898,3.064 v 0 l -0.101,4.326 c 1.555,0.47 2.469,1.026 2.458,1.619 v 0 4.308 c 0,0 -4.059,2.248 -9.465,2.486 v 0 c -1.934,0 -5.063,0 -6.935,-0.094"
               style="fill:url(#linearGradient961);stroke:none"
               id="path963"
               inkscape:connector-curvature="0" /></g></g></g></g><g
       id="g965"><g
         id="g967"><g
           id="g973"><g
             id="g975"><path
               d="m 7443.254,7250.914 c -0.011,0.141 -0.032,0.217 -0.032,0.217 v 0 c 0,0 0.01,-0.076 0.032,-0.217"
               style="fill:url(#linearGradient985);stroke:none"
               id="path987"
               inkscape:connector-curvature="0" /></g></g></g></g><g
       id="g989"><g
         id="g991"
         clip-path="url(#clipPath995)"><g
           id="g997"
           transform="translate(7417.9072,7181.2227)"><path
             d="M 0,0 C -0.091,0.093 0.037,0.124 -0.004,0.206 0.199,0.336 0.33,0.237 0.432,0.062 0.282,-0.082 0.145,-0.109 0,0"
             style="fill:#0a71ae;fill-opacity:1;fill-rule:evenodd;stroke:none"
             id="path999"
             inkscape:connector-curvature="0" /></g><g
           id="g1001"
           transform="translate(7417.0576,7181.0498)"><path
             d="M 0,0 C -0.159,0.056 -0.395,0.443 -0.314,0.616 -0.248,0.607 -0.179,0.62 -0.088,0.682 0.123,0.563 0.368,0.125 0,0"
             style="fill:#0a71ae;fill-opacity:1;fill-rule:evenodd;stroke:none"
             id="path1003"
             inkscape:connector-curvature="0" /></g><g
           id="g1005"
           transform="translate(7418.9932,7182.4492)"><path
             d="m 0,0 c -0.18,-0.087 -0.332,-0.027 -0.335,0.144 0.098,0.055 0.197,0.105 0.27,0.082 C -0.003,0.138 0.008,0.062 0,0"
             style="fill:#0a71ae;fill-opacity:1;fill-rule:evenodd;stroke:none"
             id="path1007"
             inkscape:connector-curvature="0" /></g><g
           id="g1009"
           transform="translate(7403.9922,7175.5459)"><path
             d="m 0,0 c -0.201,-0.174 -0.316,-0.158 -0.475,0.02 -0.171,-0.106 -0.216,-0.254 -0.389,-0.358 -0.145,0.385 0.051,0.647 0.386,0.873 0.054,-0.142 0.165,-0.199 0.332,-0.246 0.158,0.514 0.567,0.387 1.03,0.52 C 0.896,0.545 1.143,0.201 1.117,-0.055 0.788,-0.369 0.229,-0.57 0,0"
             style="fill:#0a71ae;fill-opacity:1;fill-rule:evenodd;stroke:none"
             id="path1011"
             inkscape:connector-curvature="0" /></g><g
           id="g1013"
           transform="translate(7418.5957,7183.0225)"><path
             d="M 0,0 C -0.226,-0.13 -0.504,-0.011 -0.604,0.162 -0.868,0.644 -0.058,1.206 0.242,0.851 0.472,0.582 0.191,0.114 0,0"
             style="fill:#0a71ae;fill-opacity:1;fill-rule:evenodd;stroke:none"
             id="path1015"
             inkscape:connector-curvature="0" /></g><g
           id="g1017"
           transform="translate(7398.7979,7173.4248)"><path
             d="M 0,0 C -0.077,0.129 -0.054,0.225 0.063,0.289 0.111,0.27 0.152,0.219 0.184,0.146 0.156,0.086 0.106,0.035 0,0"
             style="fill:#0a71ae;fill-opacity:1;fill-rule:evenodd;stroke:none"
             id="path1019"
             inkscape:connector-curvature="0" /></g><g
           id="g1021"
           transform="translate(7399.3955,7173.8818)"><path
             d="M 0,0 C -0.063,-0.01 -0.107,0.039 -0.169,0.021 -0.13,0.193 -0.074,0.359 0.118,0.477 0.236,0.27 0.072,0.148 0,0"
             style="fill:#0a71ae;fill-opacity:1;fill-rule:evenodd;stroke:none"
             id="path1023"
             inkscape:connector-curvature="0" /></g><g
           id="g1025"
           transform="translate(7404.2568,7176.4561)"><path
             d="M 0,0 C 0.104,0.367 0.233,0.729 0.635,1 0.845,0.596 0.296,0.443 0.307,0.107 0.198,0.049 0.081,-0.027 0,0"
             style="fill:#0a71ae;fill-opacity:1;fill-rule:evenodd;stroke:none"
             id="path1027"
             inkscape:connector-curvature="0" /></g><g
           id="g1029"
           transform="translate(7461.7969,7206.3394)"><path
             d="M 0,0 C -0.202,0.224 -0.686,0.144 -0.707,0.573 -0.438,0.481 -0.184,0.356 0,0"
             style="fill:#0a71ae;fill-opacity:1;fill-rule:evenodd;stroke:none"
             id="path1031"
             inkscape:connector-curvature="0" /></g><g
           id="g1033"
           transform="translate(7405.5068,7177.7686)"><path
             d="m 0,0 c -0.078,-0.063 -0.121,-0.029 -0.187,-0.039 -0.02,0.172 0.019,0.191 -0.129,0.348 0.138,0.023 0.083,0.111 0.187,0.142 C 0.016,0.27 -0.164,0.191 0,0"
             style="fill:#0a71ae;fill-opacity:1;fill-rule:evenodd;stroke:none"
             id="path1035"
             inkscape:connector-curvature="0" /></g><g
           id="g1037"
           transform="translate(7400.8496,7175.5029)"><path
             d="M 0,0 C -0.132,0.1 -0.131,0.213 -0.188,0.375 -0.048,0.527 0.217,0.752 0.429,0.688 0.479,0.59 0.527,0.494 0.576,0.398 0.53,0.203 0.246,-0.066 0,0"
             style="fill:#0a71ae;fill-opacity:1;fill-rule:evenodd;stroke:none"
             id="path1039"
             inkscape:connector-curvature="0" /></g><g
           id="g1041"
           transform="translate(7407.46,7179.0186)"><path
             d="M 0,0 C -0.065,-0.026 -0.146,-0.093 -0.186,-0.04 -0.303,0.083 0.013,0.2 0,0"
             style="fill:#0a71ae;fill-opacity:1;fill-rule:evenodd;stroke:none"
             id="path1043"
             inkscape:connector-curvature="0" /></g><g
           id="g1045"
           transform="translate(7406.6563,7178.667)"><path
             d="m 0,0 c -0.365,0.167 -0.696,-0.018 -1.074,-0.031 -0.13,-0.082 -0.119,-0.215 -0.143,-0.33 -0.206,0.125 0.188,0.349 -0.106,0.62 0.162,0.569 0.978,0.72 1.28,0.234 C 0.037,0.305 -0.056,0.176 0,0"
             style="fill:#0a71ae;fill-opacity:1;fill-rule:evenodd;stroke:none"
             id="path1047"
             inkscape:connector-curvature="0" /></g><g
           id="g1049"
           transform="translate(7403.8945,7177.4697)"><path
             d="M 0,0 C -0.059,0.145 -0.02,0.26 0.145,0.332 0.206,0.16 0.202,-0.008 0,0"
             style="fill:#0a71ae;fill-opacity:1;fill-rule:evenodd;stroke:none"
             id="path1051"
             inkscape:connector-curvature="0" /></g><g
           id="g1053"
           transform="translate(7462.0186,7207.231)"><path
             d="m 0,0 c -0.368,-0.023 -0.49,0.134 -0.829,0.1 -0.059,0.154 -0.158,0.324 0,0.413 C -0.678,-0.045 -0.234,0.295 0,0"
             style="fill:#0a71ae;fill-opacity:1;fill-rule:evenodd;stroke:none"
             id="path1055"
             inkscape:connector-curvature="0" /></g><g
           id="g1057"
           transform="translate(7407.3535,7179.5352)"><path
             d="M 0,0 C 0.132,0.305 0.041,0.677 -0.128,1.075 0.17,1.371 0.646,1.453 0.963,1.478 1.085,1.306 1.283,1.119 1.3,0.921 0.858,0.712 0.583,0.373 0.201,0.521 0.124,0.366 0.386,-0.055 0,0"
             style="fill:#0a71ae;fill-opacity:1;fill-rule:evenodd;stroke:none"
             id="path1059"
             inkscape:connector-curvature="0" /></g><g
           id="g1061"
           transform="translate(7411.7207,7182.0674)"><path
             d="m 0,0 c -0.033,0.077 -0.098,0.061 -0.125,0.145 -0.147,-0.169 -0.28,-0.343 -0.472,-0.5 -0.466,0.248 -0.01,0.712 0.241,0.955 0.091,-0.111 0.211,-0.122 0.269,-0.332 -0.17,0.459 0.58,0.865 0.742,0.171 C 0.597,0.107 0.2,0.229 0,0"
             style="fill:#0a71ae;fill-opacity:1;fill-rule:evenodd;stroke:none"
             id="path1063"
             inkscape:connector-curvature="0" /></g><g
           id="g1065"
           transform="translate(7400.8242,7176.5771)"><path
             d="M 0,0 C -0.206,0.646 0.991,1.934 1.252,0.795 1.052,0.699 0.818,0.51 0.72,0.729 0.384,0.52 0.299,0.227 0,0"
             style="fill:#0a71ae;fill-opacity:1;fill-rule:evenodd;stroke:none"
             id="path1067"
             inkscape:connector-curvature="0" /></g><g
           id="g1069"
           transform="translate(7417.4443,7185.3926)"><path
             d="M 0,0 C -0.067,0.187 0.143,0.334 0.283,0.354 0.299,0.299 0.33,0.285 0.369,0.293 0.529,0.017 0.187,-0.292 0,0"
             style="fill:#0a71ae;fill-opacity:1;fill-rule:evenodd;stroke:none"
             id="path1071"
             inkscape:connector-curvature="0" /></g><g
           id="g1073"
           transform="translate(7398.9854,7176.3213)"><path
             d="M 0,0 C 0.011,0.393 0.19,1.408 0.803,0.973 0.779,0.568 0.303,0.307 0,0"
             style="fill:#0a71ae;fill-opacity:1;fill-rule:evenodd;stroke:none"
             id="path1075"
             inkscape:connector-curvature="0" /></g><g
           id="g1077"
           transform="translate(7411.4258,7182.748)"><path
             d="M 0,0 C -0.06,-0.049 -0.091,0 -0.146,-0.022 -0.247,0.126 -0.267,0.249 -0.231,0.348 -0.038,0.366 -0.011,0.167 0,0"
             style="fill:#0a71ae;fill-opacity:1;fill-rule:evenodd;stroke:none"
             id="path1079"
             inkscape:connector-curvature="0" /></g><g
           id="g1081"
           transform="translate(7406.4561,7180.5879)"><path
             d="M 0,0 C -0.027,0.343 0.265,0.969 0.781,0.809 1.049,0.407 0.3,-0.113 0,0"
             style="fill:#0a71ae;fill-opacity:1;fill-rule:evenodd;stroke:none"
             id="path1083"
             inkscape:connector-curvature="0" /></g><g
           id="g1085"
           transform="translate(7438.3203,7197.251)"><path
             d="M 0,0 C 0.082,0.123 0.202,0.23 0.41,0.314 1.121,0.133 0.242,-0.754 0,0"
             style="fill:#0a71ae;fill-opacity:1;fill-rule:evenodd;stroke:none"
             id="path1087"
             inkscape:connector-curvature="0" /></g><g
           id="g1089"
           transform="translate(7414.7383,7185.002)"><path
             d="M 0,0 C -0.053,0.176 0.085,0.293 0.265,0.393 0.648,0.164 0.241,-0.342 0,0"
             style="fill:#0a71ae;fill-opacity:1;fill-rule:evenodd;stroke:none"
             id="path1091"
             inkscape:connector-curvature="0" /></g><g
           id="g1093"
           transform="translate(7396.6123,7175.5811)"><path
             d="M 0,0 C -0.088,-0.063 -0.162,-0.074 -0.225,-0.066 -0.264,0.105 -0.092,0.172 0,0"
             style="fill:#0a71ae;fill-opacity:1;fill-rule:evenodd;stroke:none"
             id="path1095"
             inkscape:connector-curvature="0" /></g><g
           id="g1097"
           transform="translate(7413.2354,7184.1855)"><path
             d="M 0,0 C -0.162,0.226 -0.104,0.377 0.12,0.475 0.373,0.334 0.31,-0.048 0,0"
             style="fill:#0a71ae;fill-opacity:1;fill-rule:evenodd;stroke:none"
             id="path1099"
             inkscape:connector-curvature="0" /></g><g
           id="g1101"
           transform="translate(7460.8125,7208.4849)"><path
             d="M 0,0 C -0.164,-0.08 -0.241,0.103 -0.331,0.246 -0.168,0.352 0.026,0.165 0,0"
             style="fill:#0a71ae;fill-opacity:1;fill-rule:evenodd;stroke:none"
             id="path1103"
             inkscape:connector-curvature="0" /></g><g
           id="g1105"
           transform="translate(7420.5859,7188.2881)"><path
             d="M 0,0 C -0.269,0.455 -0.084,0.936 0.405,1.035 0.864,0.623 0.619,-0.237 0,0"
             style="fill:#0a71ae;fill-opacity:1;fill-rule:evenodd;stroke:none"
             id="path1107"
             inkscape:connector-curvature="0" /></g><g
           id="g1109"
           transform="translate(7404.2705,7179.8896)"><path
             d="M 0,0 C -0.083,0.314 0.135,0.674 0.515,0.725 0.667,0.329 0.407,0.138 0,0"
             style="fill:#0a71ae;fill-opacity:1;fill-rule:evenodd;stroke:none"
             id="path1111"
             inkscape:connector-curvature="0" /></g><g
           id="g1113"
           transform="translate(7406.9629,7182.1387)"><path
             d="M 0,0 C 0.3,-0.404 -0.203,-0.759 -0.407,-0.519 -0.572,-0.327 -0.387,0.089 0,0"
             style="fill:#0a71ae;fill-opacity:1;fill-rule:evenodd;stroke:none"
             id="path1115"
             inkscape:connector-curvature="0" /></g><g
           id="g1117"
           transform="translate(7403.918,7180.0742)"><path
             d="M 0,0 C -0.059,-0.05 -0.09,0.003 -0.14,-0.024 -0.177,0.077 -0.215,0.179 -0.06,0.225 0.053,0.191 -0.017,0.095 0,0"
             style="fill:#0a71ae;fill-opacity:1;fill-rule:evenodd;stroke:none"
             id="path1119"
             inkscape:connector-curvature="0" /></g><g
           id="g1121"
           transform="translate(7400.9521,7178.6689)"><path
             d="M 0,0 C -0.539,0.361 -0.023,1.168 0.552,1.366 0.593,0.836 0.501,0.35 0,0"
             style="fill:#0a71ae;fill-opacity:1;fill-rule:evenodd;stroke:none"
             id="path1123"
             inkscape:connector-curvature="0" /></g><g
           id="g1125"
           transform="translate(7413.0869,7184.9902)"><path
             d="m 0,0 c -0.188,-0.081 -0.421,0.219 -0.108,0.309 0.07,0.15 -0.145,0.392 0.057,0.498 C 0.039,0.727 0.137,0.678 0.202,0.523 -0.081,0.344 0.025,0.246 0,0"
             style="fill:#0a71ae;fill-opacity:1;fill-rule:evenodd;stroke:none"
             id="path1127"
             inkscape:connector-curvature="0" /></g><g
           id="g1129"
           transform="translate(7407.2939,7182.3066)"><path
             d="M 0,0 C -0.035,0.066 -0.068,0.134 -0.106,0.204 -0.035,0.357 0.206,0.38 0.35,0.436 0.556,0.179 0.211,0.017 0,0"
             style="fill:#0a71ae;fill-opacity:1;fill-rule:evenodd;stroke:none"
             id="path1131"
             inkscape:connector-curvature="0" /></g><g
           id="g1133"
           transform="translate(7417.3418,7187.7285)"><path
             d="M 0,0 C 0.107,0.11 0.103,0.073 0.229,0.063 0.289,-0.063 0.04,-0.172 0,0"
             style="fill:#0a71ae;fill-opacity:1;fill-rule:evenodd;stroke:none"
             id="path1135"
             inkscape:connector-curvature="0" /></g><g
           id="g1137"
           transform="translate(7411.8623,7185.251)"><path
             d="M 0,0 C 0.107,0.053 0.228,0.142 0.311,0.106 0.574,-0.28 -0.022,-0.437 0,0"
             style="fill:#0a71ae;fill-opacity:1;fill-rule:evenodd;stroke:none"
             id="path1139"
             inkscape:connector-curvature="0" /></g><g
           id="g1141"
           transform="translate(7406.6133,7182.4248)"><path
             d="M 0,0 C 0.038,0.159 0.123,0.301 0.368,0.394 0.826,0.23 0.257,-0.318 0,0"
             style="fill:#0a71ae;fill-opacity:1;fill-rule:evenodd;stroke:none"
             id="path1143"
             inkscape:connector-curvature="0" /></g><g
           id="g1145"
           transform="translate(7405.3164,7181.6113)"><path
             d="M 0,0 C -0.084,0.242 0.009,0.432 0.283,0.561 0.495,0.271 0.194,0.153 0,0"
             style="fill:#0a71ae;fill-opacity:1;fill-rule:evenodd;stroke:none"
             id="path1147"
             inkscape:connector-curvature="0" /></g><g
           id="g1149"
           transform="translate(7411.4922,7184.96)"><path
             d="M 0,0 C -0.092,-0.004 -0.173,0.026 -0.246,0.08 -0.322,0.233 -0.222,0.323 -0.044,0.391 -0.024,0.339 0.003,0.323 0.038,0.331 0.161,0.175 0.011,0.11 0,0"
             style="fill:#0a71ae;fill-opacity:1;fill-rule:evenodd;stroke:none"
             id="path1151"
             inkscape:connector-curvature="0" /></g><g
           id="g1153"
           transform="translate(7412.8496,7185.751)"><path
             d="M 0,0 C -0.051,-0.024 -0.11,-0.053 -0.164,-0.083 -0.248,0.039 -0.221,0.122 -0.085,0.166 -0.058,0.111 -0.027,0.059 0,0"
             style="fill:#0a71ae;fill-opacity:1;fill-rule:evenodd;stroke:none"
             id="path1155"
             inkscape:connector-curvature="0" /></g><g
           id="g1157"
           transform="translate(7400.2627,7180.0244)"><path
             d="M 0,0 C 0.265,-0.402 -0.113,-0.605 -0.534,-0.788 -0.635,-0.434 -0.184,-0.258 0,0"
             style="fill:#0a71ae;fill-opacity:1;fill-rule:evenodd;stroke:none"
             id="path1159"
             inkscape:connector-curvature="0" /></g><g
           id="g1161"
           transform="translate(7405.9512,7182.6084)"><path
             d="M 0,0 C -0.171,0.167 -0.063,0.45 0.222,0.576 0.526,0.385 0.346,0.09 0,0"
             style="fill:#0a71ae;fill-opacity:1;fill-rule:evenodd;stroke:none"
             id="path1163"
             inkscape:connector-curvature="0" /></g><g
           id="g1165"
           transform="translate(7407.3477,7183.6279)"><path
             d="M 0,0 C -0.188,0.064 -0.203,0.284 -0.393,0.475 -0.302,0.606 -0.13,0.851 0.098,0.827 0.265,0.487 -0.021,0.296 0,0"
             style="fill:#0a71ae;fill-opacity:1;fill-rule:evenodd;stroke:none"
             id="path1167"
             inkscape:connector-curvature="0" /></g><g
           id="g1169"
           transform="translate(7400.0322,7180.377)"><path
             d="M 0,0 C -0.183,-0.085 -0.244,0.195 -0.084,0.265 0.051,0.228 0.018,0.086 0,0"
             style="fill:#0a71ae;fill-opacity:1;fill-rule:evenodd;stroke:none"
             id="path1171"
             inkscape:connector-curvature="0" /></g><g
           id="g1173"
           transform="translate(7405.4697,7183.2432)"><path
             d="m 0,0 c -0.103,-0.064 -0.185,-0.073 -0.229,0.041 0.02,0.05 0.072,0.092 0.145,0.122 C -0.058,0.112 -0.03,0.054 0,0"
             style="fill:#0a71ae;fill-opacity:1;fill-rule:evenodd;stroke:none"
             id="path1175"
             inkscape:connector-curvature="0" /></g><g
           id="g1177"
           transform="translate(7401.8232,7181.4424)"><path
             d="M 0,0 C -0.02,0.099 -0.015,0.189 0.145,0.228 0.164,0.189 0.188,0.142 0.207,0.107 0.181,0.024 0.08,-0.025 0,0"
             style="fill:#0a71ae;fill-opacity:1;fill-rule:evenodd;stroke:none"
             id="path1179"
             inkscape:connector-curvature="0" /></g><g
           id="g1181"
           transform="translate(7396.1768,7178.6768)"><path
             d="M 0,0 C -0.058,0.099 -0.107,0.196 -0.085,0.27 -0.264,0.134 -0.383,0.189 -0.496,0.264 -0.56,0.387 -0.489,0.471 -0.497,0.574 -0.317,0.591 -0.154,0.575 -0.042,0.393 0.106,0.467 0.23,0.451 0.369,0.498 0.628,0.211 0.237,0.024 0,0"
             style="fill:#0a71ae;fill-opacity:1;fill-rule:evenodd;stroke:none"
             id="path1183"
             inkscape:connector-curvature="0" /></g><g
           id="g1185"
           transform="translate(7403.2793,7182.8613)"><path
             d="M 0,0 C -0.082,0.173 0.105,0.262 0.289,0.346 0.454,0.155 0.175,-0.021 0,0"
             style="fill:#0a71ae;fill-opacity:1;fill-rule:evenodd;stroke:none"
             id="path1187"
             inkscape:connector-curvature="0" /></g><g
           id="g1189"
           transform="translate(7398.8711,7180.9219)"><path
             d="M 0,0 C -0.044,0.191 -0.127,0.388 -0.065,0.541 0.172,0.683 0.348,0.658 0.473,0.711 0.515,0.521 0.562,0.55 0.659,0.339 0.565,0.086 0.259,-0.022 0,0"
             style="fill:#0a71ae;fill-opacity:1;fill-rule:evenodd;stroke:none"
             id="path1191"
             inkscape:connector-curvature="0" /></g><g
           id="g1193"
           transform="translate(7406.8428,7185.0293)"><path
             d="M 0,0 C -0.227,0.277 0.059,0.555 0.265,0.393 0.391,0.18 0.222,0 0,0"
             style="fill:#0a71ae;fill-opacity:1;fill-rule:evenodd;stroke:none"
             id="path1195"
             inkscape:connector-curvature="0" /></g><g
           id="g1197"
           transform="translate(7411.2881,7187.6025)"><path
             d="M 0,0 C -0.076,0.176 -0.05,0.314 -0.021,0.456 0.136,0.551 0.162,0.249 0.287,0.249 0.346,0.117 0.12,0.076 0,0"
             style="fill:#0a71ae;fill-opacity:1;fill-rule:evenodd;stroke:none"
             id="path1199"
             inkscape:connector-curvature="0" /></g><g
           id="g1201"
           transform="translate(7404.1836,7184.1436)"><path
             d="m 0,0 c -0.08,-0.057 -0.125,-0.025 -0.188,-0.041 -0.027,0.078 0.023,0.13 0.125,0.169 C -0.044,0.086 -0.025,0.042 0,0"
             style="fill:#0a71ae;fill-opacity:1;fill-rule:evenodd;stroke:none"
             id="path1203"
             inkscape:connector-curvature="0" /></g><g
           id="g1205"
           transform="translate(7396.8896,7180.6445)"><path
             d="M 0,0 C -0.043,-0.02 -0.085,-0.041 -0.128,-0.063 -0.154,-0.012 -0.182,0.045 -0.209,0.099 -0.108,0.17 -0.043,0.117 0,0"
             style="fill:#0a71ae;fill-opacity:1;fill-rule:evenodd;stroke:none"
             id="path1207"
             inkscape:connector-curvature="0" /></g><g
           id="g1209"
           transform="translate(7397.8486,7182.5332)"><path
             d="M 0,0 C 0.119,0.085 0.184,0 0.309,0.106 0.686,-0.093 1.351,-0.744 0.665,-1.009 0.202,-1.19 -0.195,-0.501 0,0"
             style="fill:#0a71ae;fill-opacity:1;fill-rule:evenodd;stroke:none"
             id="path1211"
             inkscape:connector-curvature="0" /></g><g
           id="g1213"
           transform="translate(7395.7764,7180.2842)"><path
             d="M 0,0 C -0.116,0.194 0.152,0.163 0.266,0.19 0.333,0.093 0.07,-0.063 0,0"
             style="fill:#0a71ae;fill-opacity:1;fill-rule:evenodd;stroke:none"
             id="path1215"
             inkscape:connector-curvature="0" /></g><g
           id="g1217"
           transform="translate(7394.5811,7179.6768)"><path
             d="M 0,0 C -0.069,-0.036 -0.138,-0.07 -0.202,-0.104 -0.359,-0.043 -0.604,0.172 -0.604,0.37 -0.4,0.389 -0.226,0.332 -0.042,0.292 0.043,0.169 -0.019,0.099 0,0"
             style="fill:#0a71ae;fill-opacity:1;fill-rule:evenodd;stroke:none"
             id="path1219"
             inkscape:connector-curvature="0" /></g><g
           id="g1221"
           transform="translate(7413.7725,7189.6455)"><path
             d="M 0,0 C -0.05,0.016 -0.08,0.1 -0.143,0.084 -0.241,0.311 -0.172,0.48 0,0.621 0.245,0.551 0.381,0.078 0,0"
             style="fill:#0a71ae;fill-opacity:1;fill-rule:evenodd;stroke:none"
             id="path1223"
             inkscape:connector-curvature="0" /></g><g
           id="g1225"
           transform="translate(7409.7158,7187.7402)"><path
             d="M 0,0 C -0.104,0.139 -0.386,0.154 -0.37,0.326 -0.168,0.463 -0.035,0.373 0.144,0.432 0.311,0.217 0.266,0.073 0,0"
             style="fill:#0a71ae;fill-opacity:1;fill-rule:evenodd;stroke:none"
             id="path1227"
             inkscape:connector-curvature="0" /></g><g
           id="g1229"
           transform="translate(7413.3818,7189.7061)"><path
             d="M 0,0 C -0.042,-0.021 -0.081,-0.045 -0.123,-0.063 -0.19,0.039 -0.198,0.125 -0.081,0.164 -0.054,0.107 -0.026,0.055 0,0"
             style="fill:#0a71ae;fill-opacity:1;fill-rule:evenodd;stroke:none"
             id="path1231"
             inkscape:connector-curvature="0" /></g><g
           id="g1233"
           transform="translate(7386.3975,7176.0889)"><path
             d="M 0,0 C -0.121,-0.055 -0.255,-0.16 -0.351,-0.127 -0.467,0.037 -0.214,0.08 -0.083,0.166 -0.054,0.105 -0.026,0.053 0,0"
             style="fill:#0a71ae;fill-opacity:1;fill-rule:evenodd;stroke:none"
             id="path1235"
             inkscape:connector-curvature="0" /></g><g
           id="g1237"
           transform="translate(7404.0039,7186.0273)"><path
             d="M 0,0 C 0.194,-0.27 0.124,-0.456 0.191,-0.683 -0.467,-1.566 -0.978,0.254 0,0"
             style="fill:#0a71ae;fill-opacity:1;fill-rule:evenodd;stroke:none"
             id="path1239"
             inkscape:connector-curvature="0" /></g><g
           id="g1241"
           transform="translate(7401.6826,7184.1699)"><path
             d="M 0,0 C -0.064,0.09 -0.076,0.161 -0.065,0.226 -0.009,0.257 0.043,0.284 0.103,0.312 0.217,0.155 0.141,0.065 0,0"
             style="fill:#0a71ae;fill-opacity:1;fill-rule:evenodd;stroke:none"
             id="path1243"
             inkscape:connector-curvature="0" /></g><g
           id="g1245"
           transform="translate(7404.2178,7188.1563)"><path
             d="M 0,0 C 0.191,-0.098 0.191,-0.37 0.086,-0.478 0.561,-1.066 0.561,-2.273 -0.382,-1.803 -0.74,-1.168 -0.26,-0.545 0,0"
             style="fill:#0a71ae;fill-opacity:1;fill-rule:evenodd;stroke:none"
             id="path1247"
             inkscape:connector-curvature="0" /></g><g
           id="g1249"
           transform="translate(7403.4258,7185.9365)"><path
             d="M 0,0 C -0.027,-0.014 -0.053,-0.026 -0.08,-0.042 -0.094,0 -0.119,-0.013 -0.146,-0.02 c -0.013,0.029 -0.028,0.056 -0.04,0.083 0.035,0.009 0.032,0.035 0.02,0.062 0.028,0.016 0.055,0.03 0.079,0.041 C -0.074,0.125 -0.049,0.137 -0.021,0.147 -0.007,0.119 0.009,0.091 0.021,0.064 -0.018,0.054 -0.01,0.029 0,0"
             style="fill:#0a71ae;fill-opacity:1;fill-rule:evenodd;stroke:none"
             id="path1251"
             inkscape:connector-curvature="0" /></g><g
           id="g1253"
           transform="translate(7406.3496,7187.5303)"><path
             d="M 0,0 C -0.126,0.189 -0.1,0.33 0.041,0.432 0.474,0.454 0.302,-0.079 0,0"
             style="fill:#0a71ae;fill-opacity:1;fill-rule:evenodd;stroke:none"
             id="path1255"
             inkscape:connector-curvature="0" /></g><g
           id="g1257"
           transform="translate(7386.8037,7177.5381)"><path
             d="m 0,0 c -0.099,-0.057 -0.195,-0.105 -0.27,-0.082 -0.024,0.111 0.11,0.17 0.187,0.246 C -0.057,0.107 -0.027,0.057 0,0"
             style="fill:#0a71ae;fill-opacity:1;fill-rule:evenodd;stroke:none"
             id="path1259"
             inkscape:connector-curvature="0" /></g><g
           id="g1261"
           transform="translate(7411.8926,7190.3975)"><path
             d="M 0,0 C -0.433,0.18 -0.608,0.965 -0.322,1.238 0.104,1.104 0.677,0.297 0,0"
             style="fill:#0a71ae;fill-opacity:1;fill-rule:evenodd;stroke:none"
             id="path1263"
             inkscape:connector-curvature="0" /></g><g
           id="g1265"
           transform="translate(7396.1699,7182.7666)"><path
             d="M 0,0 C -0.051,0.119 -0.108,0.052 -0.084,0.169 0.058,0.28 0.176,0.052 0,0"
             style="fill:#0a71ae;fill-opacity:1;fill-rule:evenodd;stroke:none"
             id="path1267"
             inkscape:connector-curvature="0" /></g><g
           id="g1269"
           transform="translate(7421.4805,7195.8994)"><path
             d="M 0,0 C -0.141,0.207 0.059,0.303 0.268,0.395 0.55,0.111 0.214,-0.17 0,0"
             style="fill:#0a71ae;fill-opacity:1;fill-rule:evenodd;stroke:none"
             id="path1271"
             inkscape:connector-curvature="0" /></g><g
           id="g1273"
           transform="translate(7406.2637,7188.0049)"><path
             d="M 0,0 C -0.146,-0.102 -0.267,-0.117 -0.35,-0.021 -0.424,0.126 -0.32,0.217 -0.146,0.287 -0.06,0.265 0.033,0.084 0,0"
             style="fill:#0a71ae;fill-opacity:1;fill-rule:evenodd;stroke:none"
             id="path1275"
             inkscape:connector-curvature="0" /></g><g
           id="g1277"
           transform="translate(7391.2422,7181.1436)"><path
             d="M 0,0 C 0.026,0.093 0.194,0.147 0.248,0.021 0.222,-0.074 0.043,-0.157 0,0"
             style="fill:#0a71ae;fill-opacity:1;fill-rule:evenodd;stroke:none"
             id="path1279"
             inkscape:connector-curvature="0" /></g><g
           id="g1281"
           transform="translate(7404.0273,7188.6309)"><path
             d="M 0,0 C 0.031,0.101 0.12,0.187 0.288,0.249 0.639,0.036 0.165,-0.293 0,0"
             style="fill:#0a71ae;fill-opacity:1;fill-rule:evenodd;stroke:none"
             id="path1283"
             inkscape:connector-curvature="0" /></g><g
           id="g1285"
           transform="translate(7382.7725,7177.8232)"><path
             d="M 0,0 C -0.17,-0.094 -0.326,-0.164 -0.414,-0.006 -0.253,0.074 -0.059,0.24 0,0"
             style="fill:#0a71ae;fill-opacity:1;fill-rule:evenodd;stroke:none"
             id="path1287"
             inkscape:connector-curvature="0" /></g><g
           id="g1289"
           transform="translate(7402.8311,7188.2275)"><path
             d="M 0,0 C -0.119,0.236 -0.119,0.431 0.019,0.578 0.195,0.594 0.348,0.539 0.454,0.333 0.433,0.167 0.203,-0.094 0,0"
             style="fill:#0a71ae;fill-opacity:1;fill-rule:evenodd;stroke:none"
             id="path1291"
             inkscape:connector-curvature="0" /></g><g
           id="g1293"
           transform="translate(7401.8857,7187.8516)"><path
             d="M 0,0 C -0.082,0.126 0.102,0.24 0.205,0.203 0.225,0.166 0.245,0.126 0.265,0.084 0.241,0 0.058,-0.111 0,0"
             style="fill:#0a71ae;fill-opacity:1;fill-rule:evenodd;stroke:none"
             id="path1295"
             inkscape:connector-curvature="0" /></g><g
           id="g1297"
           transform="translate(7403.6104,7188.7275)"><path
             d="M 0,0 C -0.057,0.1 -0.062,0.184 -0.016,0.248 0.081,0.316 0.145,0.26 0.188,0.146 0.158,0.092 0.104,0.039 0,0"
             style="fill:#0a71ae;fill-opacity:1;fill-rule:evenodd;stroke:none"
             id="path1299"
             inkscape:connector-curvature="0" /></g><g
           id="g1301"
           transform="translate(7376.5859,7175.6104)"><path
             d="m 0,0 c -0.054,-0.029 -0.111,-0.057 -0.166,-0.084 -0.018,0.049 -0.048,0.066 -0.083,0.061 C -0.304,0.119 -0.036,0.184 0,0"
             style="fill:#0a71ae;fill-opacity:1;fill-rule:evenodd;stroke:none"
             id="path1303"
             inkscape:connector-curvature="0" /></g><g
           id="g1305"
           transform="translate(7395.3877,7185.5322)"><path
             d="M 0,0 C -0.028,0.055 -0.056,0.108 -0.083,0.163 0.029,0.231 0.139,0.284 0.185,0.146 0.155,0.087 0.104,0.039 0,0"
             style="fill:#0a71ae;fill-opacity:1;fill-rule:evenodd;stroke:none"
             id="path1307"
             inkscape:connector-curvature="0" /></g><g
           id="g1309"
           transform="translate(7414.1309,7195.2705)"><path
             d="m 0,0 c -0.061,0.098 0.004,0.158 -0.02,0.246 0.089,0 0.181,0 0.226,-0.142 C 0.18,0.025 0.081,-0.025 0,0"
             style="fill:#0a71ae;fill-opacity:1;fill-rule:evenodd;stroke:none"
             id="path1311"
             inkscape:connector-curvature="0" /></g><g
           id="g1313"
           transform="translate(7401.1924,7188.999)"><path
             d="M 0,0 C -0.073,0.256 -0.184,0.523 0.08,0.662 0.47,0.531 0.596,0.025 0,0"
             style="fill:#0a71ae;fill-opacity:1;fill-rule:evenodd;stroke:none"
             id="path1315"
             inkscape:connector-curvature="0" /></g><g
           id="g1317"
           transform="translate(7400.7139,7189.3311)"><path
             d="M 0,0 C -0.138,-0.115 -0.257,0.115 -0.082,0.164 0.028,0.115 -0.062,0.109 0,0"
             style="fill:#0a71ae;fill-opacity:1;fill-rule:evenodd;stroke:none"
             id="path1319"
             inkscape:connector-curvature="0" /></g><g
           id="g1321"
           transform="translate(7392.9697,7185.7021)"><path
             d="M 0,0 C -0.029,0.056 -0.06,0.11 -0.084,0.165 0.018,0.231 0.1,0.239 0.144,0.126 0.12,0.076 0.073,0.03 0,0"
             style="fill:#0a71ae;fill-opacity:1;fill-rule:evenodd;stroke:none"
             id="path1323"
             inkscape:connector-curvature="0" /></g><g
           id="g1325"
           transform="translate(7402.3994,7190.9092)"><path
             d="m 0,0 c -0.194,-0.094 -0.339,-0.049 -0.437,0.145 0.044,0.125 0.206,0.084 0.31,0.103 C -0.086,0.168 -0.043,0.084 0,0"
             style="fill:#0a71ae;fill-opacity:1;fill-rule:evenodd;stroke:none"
             id="path1327"
             inkscape:connector-curvature="0" /></g><g
           id="g1329"
           transform="translate(7402.6582,7192.3408)"><path
             d="M 0,0 C -0.038,0.137 -0.016,0.254 0.142,0.33 0.416,0.168 0.232,-0.205 0,0"
             style="fill:#0a71ae;fill-opacity:1;fill-rule:evenodd;stroke:none"
             id="path1331"
             inkscape:connector-curvature="0" /></g><g
           id="g1333"
           transform="translate(7390.1357,7185.9727)"><path
             d="M 0,0 C -0.119,-0.084 -0.203,-0.056 -0.252,0.082 -0.19,0.108 -0.141,0.136 -0.083,0.166 -0.055,0.108 -0.027,0.055 0,0"
             style="fill:#0a71ae;fill-opacity:1;fill-rule:evenodd;stroke:none"
             id="path1335"
             inkscape:connector-curvature="0" /></g><g
           id="g1337"
           transform="translate(7390.5225,7186.8447)"><path
             d="M 0,0 C 0.078,0.13 0.348,0.13 0.435,-0.04 0.36,-0.152 0.078,-0.203 0,0"
             style="fill:#0a71ae;fill-opacity:1;fill-rule:evenodd;stroke:none"
             id="path1339"
             inkscape:connector-curvature="0" /></g><g
           id="g1341"
           transform="translate(7398.3691,7190.7803)"><path
             d="M 0,0 C -0.065,0.105 -0.077,0.186 0.039,0.23 0.079,0.205 0.118,0.186 0.146,0.129 0.126,0.074 0.075,0.035 0,0"
             style="fill:#0a71ae;fill-opacity:1;fill-rule:evenodd;stroke:none"
             id="path1343"
             inkscape:connector-curvature="0" /></g><g
           id="g1345"
           transform="translate(7395.8594,7189.5029)"><path
             d="M 0,0 C -0.223,-0.129 -0.55,-0.104 -0.56,0.076 -0.39,0.18 -0.245,0.191 -0.106,0.207 -0.071,0.141 -0.035,0.07 0,0"
             style="fill:#0a71ae;fill-opacity:1;fill-rule:evenodd;stroke:none"
             id="path1347"
             inkscape:connector-curvature="0" /></g><g
           id="g1349"
           transform="translate(7397.2676,7191.624)"><path
             d="M 0,0 C 0.039,0.205 0.063,0.41 0.164,0.596 0.771,0.363 0.515,-0.639 0,0"
             style="fill:#0a71ae;fill-opacity:1;fill-rule:evenodd;stroke:none"
             id="path1351"
             inkscape:connector-curvature="0" /></g><g
           id="g1353"
           transform="translate(7389.8154,7187.416)"><path
             d="M 0,0 C -0.412,-0.097 -0.623,0.413 -0.938,0.616 -0.602,0.515 -0.104,0.454 0,0"
             style="fill:#0a71ae;fill-opacity:1;fill-rule:evenodd;stroke:none"
             id="path1355"
             inkscape:connector-curvature="0" /></g><g
           id="g1357"
           transform="translate(7391.541,7189.0166)"><path
             d="m 0,0 c -0.215,-0.125 -0.51,-0.059 -0.517,0.104 0.175,0.105 0.322,0.15 0.454,0.126 C -0.002,0.143 0.011,0.066 0,0"
             style="fill:#0a71ae;fill-opacity:1;fill-rule:evenodd;stroke:none"
             id="path1359"
             inkscape:connector-curvature="0" /></g><g
           id="g1361"
           transform="translate(7371.1279,7179.0029)"><path
             d="M 0,0 C 0.19,0.113 0.438,0.236 0.722,0.21 0.649,-0.035 0.151,-0.164 0,0"
             style="fill:#0a71ae;fill-opacity:1;fill-rule:evenodd;stroke:none"
             id="path1363"
             inkscape:connector-curvature="0" /></g><g
           id="g1365"
           transform="translate(7395.2139,7192.7021)"><path
             d="M 0,0 C -0.04,-0.021 -0.084,-0.043 -0.119,-0.061 -0.238,0.092 -0.165,0.184 -0.27,0.328 -0.092,0.416 -0.012,0.133 0,0"
             style="fill:#0a71ae;fill-opacity:1;fill-rule:evenodd;stroke:none"
             id="path1367"
             inkscape:connector-curvature="0" /></g><g
           id="g1369"
           transform="translate(7391.502,7191.5381)"><path
             d="M 0,0 C 0.199,0.006 0.417,-0.018 0.498,-0.16 0.771,-0.652 -0.117,-0.523 0,0"
             style="fill:#0a71ae;fill-opacity:1;fill-rule:evenodd;stroke:none"
             id="path1371"
             inkscape:connector-curvature="0" /></g><g
           id="g1373"
           transform="translate(7399.8574,7196.6221)"><path
             d="M 0,0 C 0.108,-0.15 0.05,-0.246 0.029,-0.354 0.428,-0.52 0.292,-1.217 -0.156,-1.119 -0.486,-0.766 -0.378,-0.113 0,0"
             style="fill:#0a71ae;fill-opacity:1;fill-rule:evenodd;stroke:none"
             id="path1375"
             inkscape:connector-curvature="0" /></g><g
           id="g1377"
           transform="translate(7380.4805,7186.5088)"><path
             d="M 0,0 C -0.063,0.074 -0.027,0.119 -0.046,0.184 0.065,0.23 0.147,0.203 0.206,0.106 0.165,-0.016 0.104,0.047 0,0"
             style="fill:#0a71ae;fill-opacity:1;fill-rule:evenodd;stroke:none"
             id="path1379"
             inkscape:connector-curvature="0" /></g><g
           id="g1381"
           transform="translate(7431,7212.3516)"><path
             d="m 0,0 c -0.101,-0.105 -0.119,0.057 -0.162,0.125 0.038,0.02 0.078,0.041 0.123,0.061 C 0.02,0.109 -0.013,0.063 0,0"
             style="fill:#0a71ae;fill-opacity:1;fill-rule:evenodd;stroke:none"
             id="path1383"
             inkscape:connector-curvature="0" /></g><g
           id="g1385"
           transform="translate(7376.2363,7184.8672)"><path
             d="m 0,0 c -0.267,-0.148 -0.458,-0.065 -0.604,0.159 0.203,0.117 0.166,0.109 0.307,0.21 C -0.148,0.262 -0.031,0.222 0,0"
             style="fill:#0a71ae;fill-opacity:1;fill-rule:evenodd;stroke:none"
             id="path1387"
             inkscape:connector-curvature="0" /></g><g
           id="g1389"
           transform="translate(7398.2061,7196.708)"><path
             d="M 0,0 C -0.281,0.252 -0.292,0.688 -0.276,0.955 0.028,0.818 0.478,0.084 0,0"
             style="fill:#0a71ae;fill-opacity:1;fill-rule:evenodd;stroke:none"
             id="path1391"
             inkscape:connector-curvature="0" /></g><g
           id="g1393"
           transform="translate(7409.8594,7202.7427)"><path
             d="M 0,0 C -0.381,0.393 -0.175,0.881 -0.231,1.279 0.016,1.033 0.445,0.153 0,0"
             style="fill:#0a71ae;fill-opacity:1;fill-rule:evenodd;stroke:none"
             id="path1395"
             inkscape:connector-curvature="0" /></g><g
           id="g1397"
           transform="translate(7379.5898,7189.2705)"><path
             d="M 0,0 C -0.361,-0.072 -0.694,-0.033 -0.972,0.178 -0.683,0.143 -0.337,0.283 -0.06,0.225 0,0.139 0.014,0.064 0,0"
             style="fill:#0a71ae;fill-opacity:1;fill-rule:evenodd;stroke:none"
             id="path1399"
             inkscape:connector-curvature="0" /></g><g
           id="g1401"
           transform="translate(7386.3281,7192.9521)"><path
             d="M 0,0 C -0.117,0.086 -0.23,0.184 -0.23,0.35 -0.032,0.463 0.069,0.293 0.185,0.148 0.153,0.09 0.101,0.035 0,0"
             style="fill:#0a71ae;fill-opacity:1;fill-rule:evenodd;stroke:none"
             id="path1403"
             inkscape:connector-curvature="0" /></g><g
           id="g1405"
           transform="translate(7389.0186,7195.3076)"><path
             d="M 0,0 C -0.131,-0.047 -0.31,0.078 -0.271,0.227 -0.172,0.283 -0.109,0.223 -0.022,0.246 0.077,0.133 -0.023,0.086 0,0"
             style="fill:#0a71ae;fill-opacity:1;fill-rule:evenodd;stroke:none"
             id="path1407"
             inkscape:connector-curvature="0" /></g><g
           id="g1409"
           transform="translate(7389.0723,7196.5264)"><path
             d="M 0,0 C -0.152,-0.125 -0.28,0.07 -0.248,0.186 -0.13,0.219 0.051,0.168 0,0"
             style="fill:#0a71ae;fill-opacity:1;fill-rule:evenodd;stroke:none"
             id="path1411"
             inkscape:connector-curvature="0" /></g><g
           id="g1413"
           transform="translate(7395.458,7199.979)"><path
             d="M 0,0 C -0.063,-0.045 -0.093,0.003 -0.148,-0.02 -0.296,0.068 -0.44,0.403 -0.191,0.471 -0.031,0.32 -0.039,0.197 0,0"
             style="fill:#0a71ae;fill-opacity:1;fill-rule:evenodd;stroke:none"
             id="path1415"
             inkscape:connector-curvature="0" /></g><g
           id="g1417"
           transform="translate(7390.3193,7201.3062)"><path
             d="m 0,0 c -0.179,-0.437 0.801,-0.794 0.586,-1.358 -0.669,0.034 -0.552,1.059 -1.06,1.38 0.045,0.031 -0.005,0.092 -0.022,0.141 0.183,0.139 0.281,0.024 0.394,-0.061 C -0.02,0.18 -0.184,0.336 0.019,0.374 0.165,-0.005 0.7,-0.027 0.605,-0.471 0.293,-0.583 0.069,-0.342 0,0"
             style="fill:#0a71ae;fill-opacity:1;fill-rule:evenodd;stroke:none"
             id="path1419"
             inkscape:connector-curvature="0" /></g><g
           id="g1421"
           transform="translate(7355.501,7185.4648)"><path
             d="M 0,0 C -0.247,-0.111 -0.439,-0.078 -0.624,-0.004 -0.857,0.604 0.086,0.656 0,0"
             style="fill:#0a71ae;fill-opacity:1;fill-rule:evenodd;stroke:none"
             id="path1423"
             inkscape:connector-curvature="0" /></g><g
           id="g1425"
           transform="translate(7381.543,7200.2163)"><path
             d="M 0,0 C -0.152,-0.116 -0.331,0.007 -0.29,0.16 -0.176,0.167 -0.075,0.112 0,0"
             style="fill:#0a71ae;fill-opacity:1;fill-rule:evenodd;stroke:none"
             id="path1427"
             inkscape:connector-curvature="0" /></g><g
           id="g1429"
           transform="translate(7394.1611,7207.8237)"><path
             d="M 0,0 C -0.061,-0.013 -0.097,0.04 -0.164,0.021 -0.276,0.22 -0.292,0.522 -0.104,0.517 0,0.323 -0.047,0.176 0,0"
             style="fill:#0a71ae;fill-opacity:1;fill-rule:evenodd;stroke:none"
             id="path1431"
             inkscape:connector-curvature="0" /></g><g
           id="g1433"
           transform="translate(7377.3389,7201.6577)"><path
             d="M 0,0 C -0.104,-0.07 -0.165,-0.016 -0.207,0.096 -0.103,0.167 -0.023,0.171 0.016,0.06 -0.019,0.049 -0.013,0.022 0,0"
             style="fill:#0a71ae;fill-opacity:1;fill-rule:evenodd;stroke:none"
             id="path1435"
             inkscape:connector-curvature="0" /></g><g
           id="g1437"
           transform="translate(7392.9951,7209.8203)"><path
             d="M 0,0 C -0.517,0.066 -0.517,0.965 -0.57,1.316 -0.277,1.236 0.134,0.281 0,0"
             style="fill:#0a71ae;fill-opacity:1;fill-rule:evenodd;stroke:none"
             id="path1439"
             inkscape:connector-curvature="0" /></g><g
           id="g1441"
           transform="translate(7377.4912,7209.3027)"><path
             d="m 0,0 c -0.046,0.098 -0.13,0.086 -0.163,0.227 0.13,0.089 0.208,0.017 0.309,0 C 0.228,0.109 0.127,0.051 0,0"
             style="fill:#0a71ae;fill-opacity:1;fill-rule:evenodd;stroke:none"
             id="path1443"
             inkscape:connector-curvature="0" /></g><g
           id="g1445"
           transform="translate(7402.8076,7228.0337)"><path
             d="M 0,0 C -0.054,-0.027 -0.107,-0.056 -0.162,-0.084 -0.571,0.367 -0.518,0.942 -0.547,1.375 -0.158,1.167 -0.077,0.396 0,0"
             style="fill:#0a71ae;fill-opacity:1;fill-rule:evenodd;stroke:none"
             id="path1447"
             inkscape:connector-curvature="0" /></g><g
           id="g1449"
           transform="translate(7406.5762,7239.4849)"><path
             d="M 0,0 C -0.123,0.031 -0.26,0.361 -0.043,0.395 0.13,0.319 -0.003,0.125 0,0"
             style="fill:#0a71ae;fill-opacity:1;fill-rule:evenodd;stroke:none"
             id="path1451"
             inkscape:connector-curvature="0" /></g><g
           id="g1453"
           transform="translate(7424.749,7253.6021)"><path
             d="M 0,0 C -0.116,0.164 -0.044,0.266 -0.044,0.392 0.1,0.482 0.205,0.464 0.327,0.475 0.431,0.379 0.539,0.287 0.619,0.105 0.425,-0.113 0.25,0.104 0,0"
             style="fill:#0a71ae;fill-opacity:1;fill-rule:evenodd;stroke:none"
             id="path1455"
             inkscape:connector-curvature="0" /></g><g
           id="g1457"
           transform="translate(7364.9443,7225.2134)"><path
             d="m 0,0 c -0.343,-0.01 -0.443,0.309 -0.624,0.615 -0.125,0.079 -0.4,0.127 -0.356,0.389 0.133,0.06 0.223,-0.023 0.331,-0.038 C -0.712,0.498 -0.035,0.494 0,0"
             style="fill:#0a71ae;fill-opacity:1;fill-rule:evenodd;stroke:none"
             id="path1459"
             inkscape:connector-curvature="0" /></g><g
           id="g1461"
           transform="translate(7360.8184,7224.1509)"><path
             d="M 0,0 C 0.111,0.069 0.223,0.121 0.269,-0.02 0.226,-0.141 0.035,-0.191 0,0"
             style="fill:#0a71ae;fill-opacity:1;fill-rule:evenodd;stroke:none"
             id="path1463"
             inkscape:connector-curvature="0" /></g><g
           id="g1465"
           transform="translate(7346.041,7226.6938)"><path
             d="M 0,0 C -0.054,-0.028 -0.109,-0.056 -0.164,-0.083 -0.287,0.039 -0.034,0.23 0,0"
             style="fill:#0a71ae;fill-opacity:1;fill-rule:evenodd;stroke:none"
             id="path1467"
             inkscape:connector-curvature="0" /></g><g
           id="g1469"
           transform="translate(7358.5283,7235.4795)"><path
             d="M 0,0 C -0.214,0.039 -0.736,0.432 -0.459,0.697 -0.238,0.51 -0.005,0.355 0,0"
             style="fill:#0a71ae;fill-opacity:1;fill-rule:evenodd;stroke:none"
             id="path1471"
             inkscape:connector-curvature="0" /></g><g
           id="g1473"
           transform="translate(7356.4023,7234.8701)"><path
             d="M 0,0 C -0.039,-0.021 -0.081,-0.043 -0.12,-0.064 -0.148,-0.01 -0.177,0.045 -0.202,0.1 -0.102,0.164 -0.042,0.109 0,0"
             style="fill:#0a71ae;fill-opacity:1;fill-rule:evenodd;stroke:none"
             id="path1475"
             inkscape:connector-curvature="0" /></g><g
           id="g1477"
           transform="translate(7389.6094,7254.396)"><path
             d="m 0,0 c -0.123,-0.06 -0.2,0.016 -0.289,0.063 0.036,0.192 -0.1,0.23 -0.107,0.409 C -0.144,0.583 0.04,0.214 0,0"
             style="fill:#0a71ae;fill-opacity:1;fill-rule:evenodd;stroke:none"
             id="path1479"
             inkscape:connector-curvature="0" /></g><g
           id="g1481"
           transform="translate(7352.7744,7236.5986)"><path
             d="M 0,0 C 0.172,0.041 0.183,0.184 0.289,0.146 0.523,-0.131 0.089,-0.352 0,0"
             style="fill:#0a71ae;fill-opacity:1;fill-rule:evenodd;stroke:none"
             id="path1483"
             inkscape:connector-curvature="0" /></g><g
           id="g1485"
           transform="translate(7318.3857,7248.7231)"><path
             d="M 0,0 C 1.023,0.775 2.193,-0.06 1.908,-1.1 1.486,-1.458 0.984,-1.902 0.446,-1.796 0.215,-1.482 -0.122,-1.443 -0.261,-1.119 -0.441,-0.697 -0.063,-0.395 0,0"
             style="fill:#0a71ae;fill-opacity:1;fill-rule:evenodd;stroke:none"
             id="path1487"
             inkscape:connector-curvature="0" /></g><g
           id="g1489"
           transform="translate(7332.4229,7275.5015)"><path
             d="M 0,0 C 0.192,0.241 0.52,0.074 0.703,-0.055 0.9,-0.674 -0.145,-0.654 0,0"
             style="fill:#0a71ae;fill-opacity:1;fill-rule:evenodd;stroke:none"
             id="path1491"
             inkscape:connector-curvature="0" /></g><g
           id="g1493"
           transform="translate(7333.6807,7275.8833)"><path
             d="M 0,0 C -0.024,0.069 -0.074,0.05 -0.107,0.101 -0.164,0.347 0.123,0.509 0.306,0.413 0.416,0.2 0.248,0.001 0,0"
             style="fill:#0a71ae;fill-opacity:1;fill-rule:evenodd;stroke:none"
             id="path1495"
             inkscape:connector-curvature="0" /></g><g
           id="g1497"
           transform="translate(7320.4424,7255.8892)"><path
             d="m 0,0 c -0.184,-0.111 -0.32,-0.07 -0.413,0.102 0.05,0.136 0.24,0.111 0.352,0.123 C 0.001,0.14 0.014,0.068 0,0"
             style="fill:#0a71ae;fill-opacity:1;fill-rule:evenodd;stroke:none"
             id="path1499"
             inkscape:connector-curvature="0" /></g><g
           id="g1501"
           transform="translate(7327.1514,7272.7778)"><path
             d="M 0,0 C 0.118,-0.05 0.181,-0.288 0.27,-0.43 -0.032,-1.117 -0.755,-0.271 0,0"
             style="fill:#0a71ae;fill-opacity:1;fill-rule:evenodd;stroke:none"
             id="path1503"
             inkscape:connector-curvature="0" /></g><g
           id="g1505"
           transform="translate(7328.2861,7279.0093)"><path
             d="M 0,0 C -0.47,0.296 -0.013,0.835 -0.173,1.256 -0.021,1.268 0.175,1.413 0.302,1.346 0.514,0.793 0.393,0.353 0,0"
             style="fill:#0a71ae;fill-opacity:1;fill-rule:evenodd;stroke:none"
             id="path1507"
             inkscape:connector-curvature="0" /></g><g
           id="g1509"
           transform="translate(7319.4736,7295.2583)"><path
             d="M 0,0 C -0.129,0.166 -0.043,0.263 0.08,0.35 0.299,0.271 0.223,-0.075 0,0"
             style="fill:#0a71ae;fill-opacity:1;fill-rule:evenodd;stroke:none"
             id="path1511"
             inkscape:connector-curvature="0" /></g><g
           id="g1513"
           transform="translate(7420.4111,7290.144)"><path
             d="m 0,0 c 0.183,0.506 1.001,1.218 2.261,1.891 1.857,0.992 4.674,1.9 7.833,1.947 5.307,0.08 9.676,-2.293 10.161,-3.529 h 0.048 V 0.313 C 20.259,3.18 16.146,8.352 10.943,8.517 L 8.426,8.43 C 3.587,7.935 -0.085,2.736 -0.047,0.005 V 0 Z"
             style="fill:#164c6c;fill-opacity:1;fill-rule:nonzero;stroke:none"
             id="path1515"
             inkscape:connector-curvature="0" /></g><g
           id="g1517"><g
             id="g1519" /><g
             id="g1531"><g
               clip-path="url(#clipPath1523)"
               id="g1529"
               style="opacity:0.5"><g
                 transform="translate(7477.6533,7329.855)"
                 id="g1527"><path
                   d="m 0,0 c -62.901,-54.91 -58.197,-43.047 -14.402,-36.332 -43.795,-6.715 -50.9,3.889 21.753,-32.458 -72.653,36.347 -59.917,35.539 -38.997,2.473 -20.92,33.066 -13.032,43.102 -24.153,-30.728 11.121,73.83 14.292,61.465 -9.699,37.857 23.991,23.608 35.97,19.208 -36.683,13.47 72.653,5.738 61.871,-1.095 33.007,20.925 28.864,-22.02 28.383,-34.777 1.476,39.059 C -40.791,-59.57 -50.62,-51.424 -37.6,-10.67 -50.62,-51.424 -62.901,-54.91 0,0"
                   style="fill:#ffffff;fill-opacity:1;fill-rule:nonzero;stroke:none"
                   id="path1525"
                   inkscape:connector-curvature="0" /></g></g></g></g><g
           id="g1533"
           transform="translate(7473.7168,7202.7866)"><path
             d="M 0,0 C 0.061,0.097 0.12,0.195 0.181,0.293 0.138,0.249 0.099,0.204 0.049,0.162 -0.015,0.124 -0.007,0.062 0,0 m -2.764,6.231 c -0.058,-0.153 0.004,-0.286 0.12,-0.393 0.039,0.065 0.073,0.131 0.108,0.197 -0.071,0.082 -0.13,0.2 -0.228,0.196 M -2.791,7.104 C -2.926,7.333 -2.797,7.567 -2.999,7.719 -3.357,7.463 -3.048,7.186 -3.14,6.872 -3.048,6.717 -2.896,7.059 -2.727,6.979 -2.785,6.672 -2.557,6.5 -2.419,6.249 -2.366,6.361 -2.333,6.48 -2.294,6.597 -2.386,6.769 -2.461,6.945 -2.437,7.125 -2.572,7.26 -2.635,6.991 -2.791,7.104 M 1.188,1.972 C 1.017,1.755 0.896,1.522 0.787,1.286 0.923,1.513 1.054,1.743 1.188,1.972 m -6.315,-9.646 c 0.063,0.019 0.109,-0.014 0.183,0.045 -0.02,0.039 -0.043,0.086 -0.063,0.127 -0.1,-0.038 -0.149,-0.088 -0.12,-0.172 m 0.355,11.54 C -4.877,4.085 -5.002,3.634 -5.122,3.842 -5.259,4.231 -4.612,4.06 -4.857,4.548 -4.991,4.628 -5.141,4.224 -5.458,4.292 -5.551,4.166 -5.569,4.012 -5.539,3.837 -5.715,3.753 -5.896,3.771 -5.928,3.589 -5.723,3.407 -5.45,3.435 -5.286,3.14 -5.279,2.681 -6.089,2.483 -6.186,2.054 -6.051,1.908 -5.811,2.081 -5.629,2.081 -5.566,1.884 -5.187,1.658 -5.501,1.524 -5.469,1.51 -5.435,1.505 -5.4,1.497 -5.315,1.617 -5.24,1.74 -5.155,1.86 -5.473,1.983 -5.53,2.44 -5.364,2.682 -5.17,2.721 -5.002,2.666 -4.908,2.397 -5.002,2.349 -5.1,2.3 -5.197,2.25 -5.153,2.132 -5.08,2.106 -5.006,2.082 -4.835,2.328 -4.672,2.578 -4.505,2.826 -4.613,2.98 -4.73,3.148 -4.87,3.35 c -0.05,0.196 0.243,0.284 0.098,0.516 m 3.254,4.607 c -0.134,0.004 -0.14,0.248 -0.168,0.33 0.21,0.123 0.286,-0.258 0.168,-0.33 M -126.961,113.58 c -0.399,-0.372 -0.767,-0.873 -1.257,-1.073 -0.374,-0.16 -0.84,-0.118 -1.255,-0.33 -0.339,-0.178 -0.521,-0.484 -0.855,-0.689 -0.277,-0.167 -0.674,-0.156 -0.954,-0.378 -0.1,-0.084 -0.15,-0.265 -0.256,-0.356 -0.536,-0.451 -1.269,-0.929 -1.895,-1.181 -1.197,-0.481 -2.602,-0.621 -3.222,-1.811 -0.264,-0.114 -0.653,-0.033 -0.896,-0.217 -0.131,-0.092 -0.118,-0.274 -0.228,-0.396 -0.397,-0.45 -1.24,-0.448 -1.465,-1.086 -0.138,-0.157 -0.223,0.066 -0.355,-0.044 -0.118,-0.112 -0.136,-0.249 -0.185,-0.375 -0.112,-0.04 -0.215,-0.019 -0.317,-0.022 -0.33,-0.685 -1.411,-1.172 -1.385,-1.957 -0.485,-0.201 -0.588,-0.523 -0.512,-0.96 -1.252,-0.981 -2.149,-2.363 -2.394,-3.734 -0.876,-0.698 -2.142,-1.558 -2.226,-2.584 -0.95,-0.235 -0.915,-1.286 -1.724,-1.69 -0.134,-0.125 -0.064,-0.309 -0.135,-0.458 -0.428,-0.174 -0.613,-0.635 -0.627,-1.029 -0.841,-0.39 -1.749,-1.333 -2.072,-2.165 -0.637,-0.598 -1.318,-1.476 -1.534,-2.309 -0.516,-0.317 -0.512,-0.876 -0.916,-1.346 -0.141,-0.164 -0.386,-0.797 -0.593,-1.004 -0.566,-0.582 -0.83,-1.419 -1.454,-2.009 -0.102,-0.4 -0.335,-0.764 -0.703,-1.087 -0.053,-0.276 -0.529,-0.663 -0.657,-0.987 -0.317,-0.77 -0.517,-1.639 -1.069,-2.188 -0.224,-0.22 -0.205,-0.474 -0.355,-0.795 -0.164,-0.322 -0.502,-0.566 -0.394,-1.061 -0.248,-0.366 -0.397,-0.76 -0.41,-1.196 -0.239,-0.154 -0.099,-0.323 -0.399,-0.386 -0.063,-0.15 0.101,-0.361 -0.198,-0.442 -0.051,-0.16 0.049,-0.37 0.023,-0.537 -0.642,-0.606 -0.499,-1.423 -1.048,-2.055 0.156,-0.482 -0.225,-0.813 -0.084,-1.289 -0.242,-0.11 -0.129,-0.316 -0.3,-0.449 0.035,-0.103 -0.016,-0.178 0.091,-0.308 -0.293,-0.314 -0.167,-0.815 -0.275,-1.236 -0.075,-0.277 -0.265,-0.501 -0.287,-0.805 -0.033,-0.36 0.087,-0.934 -0.013,-1.306 -0.073,-0.283 -0.271,-0.46 -0.379,-0.75 0.029,-0.422 -0.129,-0.792 -0.339,-1.148 0.198,-0.67 -0.32,-1.142 -0.314,-1.758 -0.773,-0.661 -0.229,-1.684 -0.76,-2.413 0.152,-0.872 -0.424,-1.458 -0.584,-2.179 -0.048,-0.232 0.235,-0.505 0.334,-0.837 0.129,-0.466 -0.199,-0.852 -0.212,-1.254 -1.026,-0.51 -0.308,-1.78 0.516,-2.441 0.086,-0.617 -0.193,-1.129 -0.376,-1.679 0.07,-0.284 0.2,-0.594 -0.01,-0.807 0.395,-0.722 -0.277,-1.151 0.084,-1.864 -0.303,-0.494 -0.282,-1.081 -0.272,-1.662 -0.605,-0.661 0.21,-1.71 -0.338,-2.388 -0.05,-0.215 -0.04,-0.438 0.14,-0.714 -0.601,-0.802 -0.856,-1.702 -1.193,-2.579 0.072,-0.155 0.157,-0.187 0.237,-0.274 -0.187,-0.895 -0.226,-1.83 -0.388,-2.732 0.183,-0.285 0.129,-0.511 0.301,-0.791 -0.211,-0.745 -0.12,-1.723 0.501,-2.582 -0.011,-0.164 -0.084,-0.31 -0.199,-0.441 0.061,-0.822 0.106,-1.637 0.271,-2.485 0.301,-0.508 0.445,-0.977 0.422,-1.392 0.118,-0.172 0.24,-0.211 0.428,-0.404 -0.221,-0.113 0.162,-0.397 0.092,-0.554 -0.46,-0.693 -0.21,-1.572 0.098,-2.475 -0.077,-0.145 0.007,-0.331 -0.201,-0.44 0.079,-0.305 -0.009,-0.564 0.15,-0.894 -0.304,-1.039 -0.102,-2.211 -0.225,-3.305 0.527,-0.426 0.208,-0.989 0.308,-1.466 0.094,-0.416 0.417,-1.069 0.761,-1.234 -0.041,-0.31 -0.027,-0.848 0.368,-1.059 0.23,-0.915 0.301,-1.946 0.83,-2.921 0.325,-0.604 0.844,-1.151 0.813,-1.82 0.094,0.022 0.149,-0.246 0.246,-0.209 0.049,-0.986 0.981,-1.82 1.649,-2.755 0.099,-0.116 -0.092,-0.165 -0.043,-0.271 0.319,-0.407 0.335,-0.929 0.447,-1.257 0.039,-0.116 0.168,-0.196 0.199,-0.302 0.016,-0.068 -0.056,-0.203 -0.039,-0.274 0.145,-0.609 0.58,-1.224 0.528,-1.882 0.514,-0.827 0.627,-1.728 1.108,-2.427 -0.116,-0.646 0.762,-1.402 0.829,-2.18 0.609,-1.054 1.245,-2.217 1.601,-3.344 0.04,-0.13 -0.005,-0.273 0.044,-0.404 0.32,-0.783 0.997,-1.457 0.954,-2.279 0.124,-0.098 0.239,-0.285 0.361,-0.382 -0.17,-0.277 0.041,-0.763 0.369,-1.06 0.372,-1.636 1.482,-3.526 1.838,-5.287 -0.188,-0.051 -0.377,-0.09 -0.558,-0.063 -0.76,0.915 -0.957,1.524 -1.659,2.442 -0.096,0.128 -0.214,0.099 -0.322,0.155 -0.422,0.679 -0.876,1.575 -1.458,2.142 -0.098,0.319 -0.524,1.233 -0.833,1.677 -0.21,0.306 -0.485,0.381 -0.558,0.689 -0.043,0.167 0.048,0.339 -0.152,0.64 -0.11,0.17 -0.31,0.25 -0.428,0.402 -0.308,0.408 -0.651,1.137 -0.876,1.588 -0.147,0.286 -0.162,0.606 -0.296,0.862 -0.045,0.084 -0.171,0.155 -0.207,0.233 -0.397,0.889 -0.957,2.024 -1.569,3.052 0.045,0.211 -0.044,0.231 -0.162,0.578 -0.029,0.081 0.034,0.195 0.028,0.204 -0.033,0.07 -0.124,-0.055 -0.142,-0.031 -0.047,0.058 -0.027,0.249 -0.084,0.376 -0.079,0.184 -0.311,0.361 -0.347,0.452 -0.087,0.212 -0.012,0.392 -0.097,0.553 -0.069,0.133 -0.235,0.225 -0.295,0.368 -0.099,0.23 0.018,0.47 -0.065,0.762 -0.126,0.438 -0.543,0.757 -0.355,1.124 -0.397,0.471 -0.855,0.96 -0.834,1.435 -0.626,1.125 -1.179,2.393 -1.492,3.596 -0.159,0.177 -0.322,0.355 -0.485,0.49 0.152,0.064 0.188,0.159 0.208,0.263 -0.867,1.039 -0.547,2.329 -1.304,3.23 0.079,0.095 0.134,0.195 0.116,0.319 -0.275,0.36 -0.222,0.628 -0.485,0.984 0.127,0.12 0.044,0.295 0.099,0.435 -0.736,1.263 -0.466,2.252 -1.165,3.512 0.16,0.269 0.166,0.698 -0.164,1 -0.049,0.719 -0.333,1.506 -0.309,2.211 -0.077,0.116 -0.151,0.23 -0.229,0.35 -0.082,0.219 0.073,0.376 0.052,0.586 -0.519,0.959 -0.417,2.046 -0.576,3.025 -0.093,0.145 -0.189,0.293 -0.283,0.435 -0.002,0.166 0.021,0.321 0.066,0.477 -0.068,0.172 -0.166,0.13 -0.236,0.279 0.354,0.809 -0.213,1.875 -0.393,2.835 0.011,0.184 0.199,0.324 0.213,0.509 -0.231,0.596 -0.532,1.208 -0.216,1.654 -0.438,1.492 -0.01,2.746 -0.507,4.254 0.272,0.348 0.054,0.836 -0.156,1.317 0.249,0.593 0.315,1.236 -0.064,2.001 0.346,0.945 -0.017,2.086 0.295,3.038 -0.194,0.396 0.06,0.666 -0.228,1.09 0.007,0.364 -0.113,0.762 -0.149,1.142 0.103,0.113 0.195,0.225 0.321,0.337 -0.218,0.838 0.254,1.488 -0.078,2.36 0.324,0.409 0.275,0.915 0.068,1.469 0.445,0.6 0.298,1.358 0.396,2.051 -0.129,0.183 0.061,0.042 0.113,0.077 0.065,0.741 -0.042,1.522 0.509,2.131 -0.232,0.481 -0.074,0.882 0.011,1.307 0.051,0.242 -0.032,0.528 0.041,0.77 0.025,0.081 0.117,0.138 0.134,0.209 0.065,0.281 0.046,0.356 0.192,0.622 0.117,0.216 -0.039,0.499 -0.031,0.786 0.01,0.238 0.152,0.495 0.213,0.762 0.017,0.06 -0.053,0.167 -0.037,0.218 0.145,0.538 0.52,1.04 0.601,1.573 0.031,0.177 -0.062,0.345 0.108,0.503 -0.097,0.381 0.155,0.666 0.012,1.059 0.244,0.362 0.322,0.763 0.239,1.209 0.519,0.414 0.744,0.909 0.459,1.544 0.377,0.653 0.164,1.463 0.707,2.073 0.12,0.515 0.069,1.21 0.59,1.504 0.089,0.598 0.328,1.163 0.628,1.706 -0.076,0.128 -0.213,0.273 -0.193,0.372 0.153,0.088 0.286,0.182 0.35,0.295 0.113,0.78 0.74,1.429 0.767,2.231 0.08,0.053 0.154,0.1 0.232,0.151 0.242,1.259 1.133,2.337 1.402,3.585 0.144,0.083 0.246,0.169 0.313,0.271 0.456,1.81 2.057,3.312 2.521,5.119 0.162,0.099 0.189,0.235 0.394,0.32 0.445,0.505 0.701,1.06 0.816,1.653 0.349,0.223 0.366,0.526 0.714,0.657 0.487,0.741 0.759,1.542 1.417,2.233 0.25,0.572 0.648,1.099 1.196,1.59 0.039,0.199 0.171,0.372 0.221,0.576 0.917,0.813 1.815,1.771 2.192,2.799 0.124,0.083 0.224,-0.027 0.359,0.114 0.278,0.55 0.798,0.801 1.03,1.421 0.74,0.197 1.184,1.045 1.693,1.483 0.073,0.632 0.599,0.845 1.134,1.181 0.46,0.28 0.741,0.832 1.237,0.939 0.071,0.632 0.642,0.786 1.126,1.104 0.16,0.107 0.217,0.302 0.369,0.431 0.816,0.7 1.978,1.152 2.495,2.014 0.122,0.112 0.215,0.068 0.325,0.086 0.583,0.759 1.665,1.047 1.757,1.964 0.193,0.095 0.337,-0.092 0.517,-0.036 0.709,0.607 1.454,0.971 2.188,1.314 0.377,0.539 0.9,1.089 1.551,1.455 0.117,0.104 0.125,0.249 0.192,0.377 0.148,0.076 0.256,-0.146 0.397,-0.116 0.569,0.628 1.47,0.749 2.159,1.111 0.249,0.133 0.376,0.189 0.63,0.291 0.46,0.179 0.863,0.587 1.314,0.733 0.154,0.058 0.389,-0.05 0.547,-0.006 0.505,0.137 0.903,0.699 1.456,0.521 0.519,0.224 0.916,0.625 1.427,0.815 0.194,0.07 0.482,-0.021 0.668,0.064 0.37,0.177 0.503,0.659 0.929,0.741 0.452,-0.31 0.984,-0.068 1.426,-0.428 -0.506,-0.509 -1.307,-0.817 -1.968,-0.982 m 47.983,-145.372 c -0.15,-0.058 -0.158,0.051 -0.19,0.161 0.096,0.043 0.145,-0.057 0.19,-0.161 M 2.326,5.333 C 2.148,4.665 2.051,3.977 1.864,3.315 1.378,3.009 1.391,2.542 1.271,2.116 c 7.414,12.733 11.619,27.39 11.542,42.965 -0.116,24.392 -10.694,46.44 -27.621,62.291 -16.926,15.858 -40.235,25.581 -65.88,25.458 -25.646,-0.123 -48.861,-10.072 -65.631,-26.094 -11.189,-10.68 -19.52,-24.093 -23.796,-39.077 0.044,0.029 0.083,0.059 0.11,0.095 0.314,0.42 0.281,1.107 0.826,1.308 0.272,0.496 0.337,1.056 0.623,1.521 0.11,0.174 0.393,0.279 0.488,0.461 0.182,0.368 -0.01,0.829 0.275,1.156 0.547,0.034 0.817,0.553 1.387,0.541 -0.085,-0.713 -0.527,-1.449 -0.946,-1.986 -0.086,-0.539 -0.067,-1.16 -0.33,-1.619 -0.196,-0.356 -0.589,-0.611 -0.786,-1.032 -0.156,-0.35 -0.112,-0.703 -0.249,-1.071 -0.116,-0.302 -0.435,-0.537 -0.519,-0.885 -0.027,-0.127 0.046,-0.301 0.017,-0.438 -0.144,-0.686 -0.427,-1.513 -0.765,-2.097 -0.647,-1.116 -1.668,-2.092 -1.424,-3.411 -0.138,-0.252 -0.494,-0.428 -0.572,-0.723 -0.047,-0.152 0.075,-0.288 0.063,-0.452 -0.017,-0.284 -0.174,-0.549 -0.313,-0.818 -0.219,-1.338 -0.405,-2.687 -0.559,-4.043 0.028,-0.058 0.054,-0.116 0.097,-0.167 -0.258,-0.457 -0.142,-0.774 0.188,-1.072 -0.383,-1.544 -0.239,-3.185 0.412,-4.416 -0.261,-1.089 -0.728,-2.547 -0.163,-3.407 -0.604,-0.77 0.07,-1.576 -0.317,-2.393 -0.029,-0.181 0.138,-0.283 0.176,-0.443 -0.231,-0.401 -0.093,-0.878 0.138,-1.198 -0.423,-0.825 -0.556,-2.127 -0.299,-2.981 -0.134,-0.864 -0.13,-1.975 0.213,-2.764 -0.212,-0.568 0.136,-1.005 0.107,-1.625 -0.01,-0.216 0.186,-0.865 0.151,-1.156 -0.088,-0.808 0.22,-1.629 0.091,-2.478 0.147,-0.337 0.18,-0.721 0.125,-1.14 0.745,-3.94 1.767,-7.787 3.046,-11.526 0.022,-0.021 0.033,-0.047 0.06,-0.067 -0.012,-0.024 -0.009,-0.041 -0.015,-0.063 0.072,-0.209 0.144,-0.417 0.217,-0.625 0.026,-0.015 0.058,-0.028 0.1,-0.038 -0.037,-0.428 0.37,-0.745 0.544,-1.143 0.111,-0.265 0.1,-0.558 0.27,-0.811 0.196,-0.304 0.643,-0.683 0.794,-1.038 0.116,-0.267 0.069,-0.529 0.163,-0.823 0.283,-0.315 0.386,-0.704 0.44,-1.114 0.568,-0.406 0.45,-1.096 0.834,-1.578 -0.201,-0.997 0.857,-1.468 0.888,-2.37 0.657,-0.593 0.563,-1.41 0.881,-2.076 0.105,-0.213 0.497,-0.254 0.779,-0.454 0.389,-0.288 0.367,-0.794 0.605,-1.119 -0.496,-1.033 0.853,-1.591 1.91,-1.606 0.447,-0.433 0.542,-1.007 0.737,-1.554 0.229,-0.18 0.523,-0.345 0.489,-0.642 0.755,-0.326 0.49,-1.078 1.214,-1.417 0.065,-0.576 0.442,-1.026 0.808,-1.477 -0.07,-0.893 1.219,-1.218 1.205,-2.091 0.092,-0.2 0.238,-0.37 0.549,-0.475 0.021,-1.003 0.373,-1.869 0.649,-2.768 0.151,-0.077 0.238,-0.05 0.355,-0.069 0.404,-0.82 0.948,-1.581 1.376,-2.392 0.32,-0.112 0.417,-0.323 0.724,-0.438 0.293,-0.717 0.967,-1.432 1.985,-1.726 0.092,-0.136 0.124,-0.296 0.115,-0.469 0.554,-0.612 1.091,-1.226 1.744,-1.793 0.55,-0.214 0.952,-0.496 1.189,-0.836 0.198,-0.063 0.319,-0.019 0.586,-0.055 -0.103,-0.225 0.372,-0.213 0.413,-0.38 0.065,-0.829 0.803,-1.368 1.601,-1.89 0.029,-0.161 0.21,-0.255 0.114,-0.47 0.249,-0.192 0.339,-0.45 0.668,-0.614 0.243,-0.61 0.664,-1.145 1.086,-1.681 1.006,-0.863 2.033,-1.704 3.077,-2.526 0.069,-0.004 0.142,-0.016 0.199,-0.004 0.158,-0.269 0.501,-0.684 0.943,-0.608 0.744,-0.578 1.435,-1.347 2.452,-1.79 0.629,-0.276 1.373,-0.387 1.762,-0.934 0.06,0.077 0.268,-0.101 0.322,-0.011 0.645,-0.748 1.893,-0.832 2.996,-1.158 0.149,-0.03 0.028,-0.186 0.132,-0.239 0.503,-0.125 0.836,-0.525 1.127,-0.715 0.101,-0.066 0.253,-0.05 0.342,-0.117 0.055,-0.043 0.082,-0.193 0.138,-0.238 0.489,-0.391 1.211,-0.607 1.574,-1.158 0.915,-0.336 1.559,-0.977 2.369,-1.231 0.305,-0.58 1.462,-0.634 1.995,-1.207 1.129,-0.455 2.345,-0.978 3.319,-1.648 0.112,-0.078 0.165,-0.219 0.284,-0.291 0.735,-0.42 1.683,-0.535 2.155,-1.209 0.158,0 0.365,-0.078 0.521,-0.08 0.036,-0.323 0.501,-0.574 0.942,-0.606 0.254,-0.207 0.542,-0.403 0.842,-0.595 10.937,-4.203 22.899,-6.496 35.42,-6.435 25.645,0.125 48.859,10.073 65.631,26.093 3.261,3.112 6.275,6.46 9.021,10.007 -0.48,-0.577 -0.978,-1.147 -1.517,-1.704 -0.095,-0.562 -0.973,-0.865 -1.059,-1.429 -0.141,-0.11 -0.142,-0.11 -0.313,-0.158 -0.735,-0.834 -1.569,-1.823 -2.591,-2.607 -0.366,-0.287 -0.685,-0.832 -1.014,-1.118 -0.125,-0.102 -0.303,-0.143 -0.417,-0.256 -0.095,-0.098 -0.088,-0.23 -0.174,-0.336 -0.557,-0.695 -1.565,-1 -1.964,-1.791 -0.262,-0.109 -0.46,-0.248 -0.527,-0.42 -0.105,-0.017 -0.222,-0.066 -0.317,-0.06 -0.878,-1.008 -2.209,-1.725 -2.965,-2.645 -0.129,-0.117 -0.162,0.039 -0.275,-0.047 -0.882,-0.922 -2.197,-1.468 -2.91,-2.365 -0.156,-0.07 -0.297,-0.109 -0.43,-0.127 -0.151,-0.057 -0.086,-0.185 -0.22,-0.254 -1.011,-0.392 -1.461,-1.205 -2.3,-1.617 -0.513,-0.254 -1.223,-0.291 -1.472,-0.795 -0.699,-0.506 -1.597,-0.674 -2.247,-1.144 -0.256,-0.19 -0.44,-0.5 -0.706,-0.655 -0.161,-0.092 -0.391,-0.092 -0.549,-0.183 -0.135,-0.077 -0.193,-0.289 -0.355,-0.375 -0.322,-0.188 -1.099,-0.012 -1.239,-0.586 -0.63,-0.033 -1.22,0.06 -1.794,-0.069 -0.524,-0.293 -0.886,-0.869 -1.478,-1.097 -0.237,-0.092 -0.507,-0.026 -0.77,-0.143 -0.245,-0.109 -0.509,-0.217 -0.825,-0.322 -0.273,-0.088 -0.429,-0.277 -0.65,-0.379 -0.106,-0.049 -0.269,-0.002 -0.373,-0.041 -0.492,-0.182 -0.996,-0.625 -1.578,-0.803 -0.387,-0.115 -0.8,-0.183 -1.198,-0.262 -0.13,-0.068 -0.165,-0.171 -0.338,-0.218 -0.413,0 -1.133,-0.135 -1.396,-0.567 -0.397,-0.076 -1.182,-0.277 -1.576,-0.701 -0.268,0.037 -0.497,-0.209 -0.807,-0.264 -0.057,-0.003 -0.187,0.036 -0.257,0.018 -0.488,-0.113 -0.894,-0.473 -1.336,-0.578 -0.228,-0.055 -0.483,0.086 -0.714,0.033 -0.593,-0.137 -1.111,-0.519 -1.757,-0.545 -0.097,-0.076 -0.174,-0.162 -0.271,-0.244 -0.747,-0.133 -1.678,-0.412 -2.466,-0.406 -0.339,-0.377 -0.727,-0.363 -1.084,-0.307 -0.121,0.276 0.225,0.66 0.548,0.58 0.286,0.346 0.629,0.469 1.006,0.463 0.139,0.096 0.214,0.215 0.332,0.317 0.507,-0.039 1.03,0.246 1.556,0.341 0.13,0.03 0.268,-0.029 0.399,0.006 0.285,0.084 0.539,0.321 0.883,0.504 0.832,0.428 1.969,0.568 2.619,0.983 1.006,0.638 2.757,1.005 3.817,1.943 0.933,0.107 1.637,0.719 2.621,1.18 0.179,0.031 0.037,0.164 0.133,0.222 0.663,-0.088 1.296,0.537 2.05,0.94 0.116,0.062 0.303,0.092 0.413,0.158 0.347,0.225 0.592,0.58 0.904,0.756 0.279,0.16 0.598,0.15 0.825,0.322 0.117,0.086 0.154,0.256 0.277,0.336 0.246,0.176 0.524,0.172 0.788,0.307 0.167,0.084 0.262,0.263 0.413,0.357 0.276,0.174 0.547,0.199 0.784,0.398 0.194,0.166 0.315,0.413 0.55,0.581 0.865,0.605 1.947,0.955 2.594,1.81 0.131,0.057 0.275,0.176 0.377,0.145 0.1,0.097 0.201,0.193 0.231,0.316 0.497,0.059 0.598,0.641 1.085,0.699 1.752,1.365 3.206,2.989 5.223,4.34 0.128,0.113 0.115,0.266 0.254,0.373 0.989,0.449 1.19,1.434 2.217,1.973 0.159,0.103 0.089,0.276 0.197,0.399 0.495,0.186 0.699,0.633 0.962,0.934 0.333,0.386 0.804,0.649 1.078,0.997 0.095,0.115 0.139,0.299 0.234,0.418 0.205,0.244 0.513,0.4 0.706,0.65 0.241,0.321 0.312,0.787 0.764,0.936 0.009,0.447 0.666,0.679 0.426,1.205 0.318,0.371 0.648,0.701 1.08,1.096 -0.078,0.572 0.937,0.791 0.899,1.351 0.097,0.029 0.187,0.035 0.278,0.039 0.102,0.305 0.373,0.555 0.622,0.815 0.123,0.392 0.511,0.541 0.786,0.795 0.811,0.742 1.219,1.787 1.977,2.541 0.107,0.087 -0.057,0.257 0.019,0.354 0.118,0.044 0.257,0.092 0.392,0.151 -0.011,0.143 -0.026,0.293 -0.052,0.468 -0.357,-0.116 -0.03,-0.449 -0.326,-0.586 -0.201,0.428 0.03,1 0.406,1.349 -0.03,0.157 0.003,0.297 -0.085,0.475 0.141,0.183 0.298,0.361 0.322,0.577 C -8.028,0.413 -8.214,0.149 -8.468,0.221 -8.625,0.14 -8.546,-0.028 -8.65,-0.131 c -0.769,-0.345 -1.057,-0.96 -1.334,-1.557 -0.952,-0.657 -1.668,-1.678 -2.278,-2.559 -0.832,-0.49 -1.433,-1.25 -1.908,-1.955 -0.282,-0.144 -0.566,-0.187 -0.765,-0.439 -0.057,-0.078 -0.027,-0.238 -0.099,-0.313 -0.212,-0.207 -0.532,-0.177 -0.679,-0.498 -0.315,-0.025 -0.475,-0.199 -0.806,-0.254 -0.62,-0.587 -1.542,-1.054 -2.281,-1.63 -0.128,-0.321 -0.492,-0.43 -0.698,-0.661 -0.291,-0.328 -0.369,-0.701 -0.692,-0.978 -0.079,-0.063 -0.218,-0.078 -0.292,-0.147 -0.23,-0.232 -0.339,-0.492 -0.553,-0.646 -0.228,-0.158 -0.541,-0.125 -0.825,-0.313 -0.222,-0.15 -0.301,-0.427 -0.476,-0.603 -0.303,-0.012 -0.44,-0.17 -0.51,-0.418 -0.387,0.125 -0.719,-0.426 -1.256,-0.691 -0.087,-0.041 -0.314,-0.092 -0.352,-0.127 -0.336,-0.294 -0.218,-0.855 -0.467,-1.115 -0.884,-0.007 -1.012,-1.366 -1.916,-1.028 -0.003,-0.387 -0.496,-0.239 -0.739,-0.378 -0.164,-0.096 -0.198,-0.284 -0.39,-0.354 -0.237,-0.086 -0.501,0.063 -0.745,-0.068 -0.283,-0.148 -0.256,-0.364 -0.513,-0.62 -0.676,0.091 -1.895,-0.267 -1.934,-1.091 -0.211,-0.043 -0.496,-0.016 -0.66,-0.229 -0.459,0.317 -1.156,-0.094 -1.695,-0.034 -0.203,-0.268 -0.616,-0.574 -0.845,-0.173 -0.639,-0.023 -1.411,-0.452 -1.939,-0.157 -2.067,-0.585 -3.936,-1.916 -6.023,-2.436 -0.11,0.565 -0.335,1.268 -0.156,1.836 0.073,0.224 0.28,0.456 0.364,0.708 0.122,0.341 0.119,0.781 0.263,1.014 0.195,0.306 0.632,0.432 0.802,0.768 -0.098,0.436 0.313,0.467 0.224,0.785 -0.22,0.768 -2.456,-0.295 -1.872,-1.206 0.165,-0.257 0.404,-0.127 0.62,-0.412 -0.197,-0.718 -0.531,-1.382 -0.933,-2.028 -0.586,-0.268 -0.527,-0.8 -0.965,-1.065 -0.248,-0.144 -0.836,-0.025 -0.886,-0.397 -0.104,-0.737 1.322,-0.945 0.963,-1.691 -0.208,-0.095 -0.34,0.024 -0.539,-0.068 -0.091,0.129 -0.073,0.21 -0.104,0.315 -0.668,0.483 -1.399,0.779 -2.239,0.729 -0.091,0.157 -0.165,0.218 -0.312,0.409 -0.18,-0.08 -0.008,-0.274 -0.057,-0.39 -0.246,-0.176 -0.483,-0.351 -0.598,-0.561 -0.188,-0.043 -0.361,-0.044 -0.576,-0.197 -1.037,0.369 -2.273,0.132 -3.332,0.436 -0.35,0.386 -0.545,1.399 -1.083,1.111 -0.299,-0.161 -0.198,-0.639 -0.013,-1.098 -1.052,0.18 -2.888,-0.674 -3.48,-1.718 0.002,0.229 -0.075,0.28 -0.25,0.387 -0.134,-0.058 -0.172,-0.147 -0.248,-0.227 0.072,-0.267 0.257,-0.191 0.374,-0.326 -0.057,-0.094 -0.175,-0.176 -0.1,-0.31 -0.235,-0.002 -0.313,-0.063 -0.619,-0.213 -0.122,-0.061 0.047,-0.221 0.002,-0.305 -0.201,-0.137 -0.525,-0.09 -0.723,-0.318 -0.083,-0.194 0.023,-0.283 0.15,-0.496 -0.052,-0.225 -0.144,-0.434 -0.369,-0.604 -0.107,-0.34 -0.057,-0.732 -0.115,-1.094 -0.456,-0.343 -0.644,-0.775 -0.779,-1.226 -0.522,-0.444 -0.682,-0.541 -1.398,-0.815 -0.043,0.082 -0.085,0.168 -0.124,0.252 -0.195,0.022 -0.271,-0.211 -0.457,-0.132 -0.104,0.255 0.118,0.398 -0.089,0.683 -0.359,-0.023 -0.274,-0.418 -0.466,-0.603 -0.507,0.318 -1.184,-0.541 -1.593,0.074 -0.179,-0.039 -0.067,-0.166 -0.208,-0.205 -0.115,0.162 -0.333,0.015 -0.454,0.177 -0.125,-0.123 -0.37,-0.082 -0.37,-0.189 -0.673,0.119 -1.405,0.051 -2.211,-0.24 -0.112,0.113 -0.261,0.107 -0.374,0.224 -0.717,-0.238 -1.253,0.084 -1.921,0.012 -0.088,0.115 0.076,0.15 -0.046,0.283 -0.338,-0.109 -0.578,-0.412 -0.926,-0.211 0.011,0.157 0.241,0.239 0.264,0.393 -0.299,0.252 -0.463,-0.291 -0.556,-0.441 -0.974,-0.459 -1.68,-0.096 -2.639,-0.512 -0.351,0.232 -0.728,0.371 -1.201,0.222 -0.318,0.217 -0.716,0.194 -1.139,0.096 -0.575,0.166 -1.204,0.16 -1.797,0.274 -0.049,0.107 -0.098,0.205 -0.168,0.228 -0.955,0.402 -1.924,0.336 -3.082,0.246 -0.088,0.153 -0.252,0.072 -0.332,0.248 -0.09,-0.064 -0.12,-0.144 -0.269,-0.183 -0.768,0.474 -1.734,0.373 -2.669,0.349 -0.043,0.106 -0.094,0.201 -0.167,0.227 -1.391,0.256 -2.784,0.517 -4.077,1.088 -0.139,-0.106 -0.218,-0.02 -0.35,-0.125 -0.156,0.152 -0.37,0.131 -0.542,0.242 -0.79,-0.201 -1.554,-0.096 -2.415,-0.242 -0.099,0.082 -0.228,0.078 -0.309,0.203 -0.171,-0.047 -0.171,-0.151 -0.31,-0.205 -0.103,0.222 -0.245,0.012 -0.397,0.054 -0.311,0.094 -0.532,0.442 -0.804,0.575 -0.391,0.187 -0.927,-0.043 -1.434,0.258 -0.243,0.146 -0.531,0.511 -0.908,0.158 -0.308,0.215 -0.536,0.674 -0.933,0.615 -0.256,0.379 -0.475,0.863 -0.854,0.863 -0.057,0.1 -0.105,0.194 -0.086,0.268 -0.212,-0.051 -0.272,0.117 -0.474,0.224 -0.505,0.268 -1.226,0 -1.699,0.483 -0.134,-0.061 -0.263,-0.104 -0.372,-0.082 -0.353,0.041 -0.687,0.138 -0.975,0.384 -0.742,-0.135 -1.379,0.061 -1.907,0.586 -0.463,0.116 -0.866,0.424 -1.286,0.696 -0.003,0.068 -0.156,0.184 -0.062,0.227 -0.52,0.081 -0.863,0.721 -1.431,0.671 -0.308,0.459 -0.717,0.609 -1.042,1.027 -1.152,-0.244 -1.767,1.179 -2.895,1.012 -0.123,0.165 -0.296,0.156 -0.458,0.183 -0.059,0.308 -0.225,0.44 -0.336,0.764 -0.298,0.182 -0.654,0.163 -0.954,0.345 -0.244,0.573 -0.981,0.456 -1.33,0.878 -0.081,0.097 -0.084,0.24 -0.167,0.329 -0.267,0.296 -0.619,0.495 -0.936,0.721 -0.098,0.13 -0.051,0.222 -0.064,0.33 -0.924,0.046 -1.443,1.324 -2.222,1.822 0.018,0.203 -0.201,0.476 -0.132,0.662 -0.258,0.138 -0.235,0.416 -0.375,0.638 -0.234,0.383 -0.655,0.662 -0.834,1.026 -0.117,0.25 -0.08,0.58 -0.186,0.785 -0.324,0.597 -1.108,0.902 -1.378,1.377 -0.174,0.308 -0.088,0.625 -0.233,0.865 -0.113,0.187 -0.376,0.244 -0.539,0.449 -0.14,0.18 -0.134,0.502 -0.418,0.621 -0.015,0.28 -0.269,0.887 -0.527,1.235 -0.232,0.316 -0.727,0.705 -1.057,1.068 -0.452,0.488 -0.669,1.051 -1.027,1.605 -0.358,0.56 -1.066,0.932 -1.494,1.519 -0.128,0.172 -0.191,0.45 -0.317,0.617 -0.092,0.114 -0.265,0.143 -0.333,0.244 -0.129,0.192 -0.091,0.448 -0.21,0.618 -0.129,0.194 -0.432,0.35 -0.623,0.619 -0.336,0.461 -0.626,1.336 -1.148,1.438 -0.201,0.412 -0.423,0.635 -0.669,1.006 -0.179,0.279 -0.517,0.4 -0.606,0.675 -0.047,0.17 0.074,0.384 0.04,0.545 -0.138,0.64 -0.725,1.492 -1.088,2.139 -0.148,1.285 -1.458,2.535 -1.885,3.704 0.128,0.784 -0.594,1.848 -1.319,2.081 -0.424,0.898 -1.149,1.56 -1.321,2.492 -0.682,1.07 -0.349,1.892 -1.153,2.887 -0.043,0.147 0.03,0.265 -0.003,0.413 -1.249,2.48 -1.188,4.532 -1.992,6.868 -0.074,0.139 -0.016,0.235 -0.016,0.352 -0.322,0.189 -0.422,0.703 -0.157,0.906 -0.277,0.445 -0.125,0.897 -0.297,1.196 0.21,0.414 0.369,0.842 0.178,1.387 0.119,0.292 -0.085,0.875 -0.421,1.029 -0.095,0.135 0.093,0.176 0,0.31 -0.712,0.741 -0.366,1.745 -0.495,2.604 -0.426,0.57 -0.318,1.234 -0.447,1.795 -0.039,0.164 -0.162,0.293 -0.185,0.471 -0.034,0.21 0.048,0.451 0.013,0.681 -0.07,0.465 -0.237,0.75 -0.008,1.139 -0.093,0.166 -0.059,0.295 -0.186,0.474 0.297,1.035 -0.295,2.363 0.101,3.371 -0.387,0.914 0.193,1.514 0.478,2.211 -0.422,1.006 0.505,1.579 0.082,2.587 -0.002,0.193 0.125,0.35 0.205,0.518 -0.025,0.108 -0.035,0.219 -0.125,0.349 0.814,1.464 -0.362,3.577 0.438,5.047 -0.11,0.152 -0.077,0.26 -0.143,0.39 0.222,0.24 0.073,0.599 0.242,0.85 -0.291,0.795 0.165,1.349 0.089,2.069 0.112,0.033 0.052,0.119 0.186,0.142 0.023,1.209 0.191,2.368 0.449,3.497 -0.15,0.237 -0.034,0.358 -0.206,0.518 0.357,0.375 0.19,0.919 0.463,1.324 -0.034,0.068 -0.071,0.138 -0.105,0.207 0.354,0.517 0.414,1.125 0.406,1.763 0.265,0.416 0.324,0.708 0.734,1.098 0.25,0.614 0.383,1.271 0.77,1.843 0.039,0.219 0.08,0.434 0.144,0.641 -0.064,0.125 -0.126,0.248 -0.19,0.373 0.152,0.108 0.188,0.258 0.327,0.369 -0.145,0.736 0.464,1.227 0.359,1.949 0.39,0.345 0.21,0.87 0.261,1.324 0.03,0.06 0.084,0.109 0.183,0.147 0.372,1.269 0.993,2.448 1.382,3.703 0.245,0.104 0.251,0.406 0.43,0.59 0.057,0.053 0.197,0.055 0.246,0.125 0.131,0.176 0.141,0.409 0.245,0.64 0.366,0.795 1.089,1.35 1.097,2.219 0.127,0.098 0.139,0.229 0.25,0.332 0.135,0.184 -0.019,0.464 0.262,0.601 v 0.41 c 0.324,0.339 0.603,0.677 0.51,1.144 0.47,0.612 0.784,1.282 0.831,2.031 0.141,0.106 0.215,0.228 0.347,0.336 0.245,0.406 0.617,0.671 0.823,1.136 0.073,0.176 0.032,0.41 0.12,0.584 0.14,0.274 0.399,0.407 0.533,0.686 0.206,0.433 0.402,0.773 0.362,1.222 0.781,0.634 0.81,1.522 1.788,2.096 0.113,0.125 0.16,0.268 0.263,0.397 0.155,0.138 0.207,-0.071 0.352,0.023 0.155,0.053 0.028,0.196 0.184,0.248 -0.06,0.172 -0.177,0.168 -0.232,0.353 0.384,0.28 0.493,0.815 0.969,0.954 0.682,1.014 1.478,1.995 2.146,3.012 0.088,0.121 0.059,0.277 0.099,0.41 0.329,0.208 0.677,0.402 0.743,0.693 0.361,0.344 1.175,0.766 1.251,1.311 0.085,0.074 0.159,0.155 0.311,0.209 0.33,0.58 0.47,1.154 1.063,1.578 0.101,0.1 0.141,0.226 0.12,0.373 0.95,0.592 1.016,1.478 2.01,2.06 0.349,0.536 1.209,0.744 1.251,1.413 0.299,0.11 0.549,0.497 0.699,0.767 0.551,0.312 1.371,0.809 1.603,1.336 0.274,0.063 0.53,0.078 0.805,0.147 0.24,0.48 0.854,0.869 1.272,1.376 0.173,0.208 0.128,0.25 0.474,0.498 0.355,0.253 0.531,0.567 0.944,0.79 0.325,0.174 0.791,0.712 1.252,1.005 0.446,0.282 1.556,0.625 1.813,1.124 0.877,0.382 1.41,1.068 1.994,1.587 0.26,0.058 0.385,0.069 0.474,0.294 0.127,0.068 0.224,0.048 0.333,0.062 0.431,0.631 1.632,0.849 1.884,1.584 0.706,0.195 1.214,0.801 1.796,1.168 0.14,0.091 0.312,0.091 0.433,0.171 0.174,0.122 0.311,0.421 0.636,0.581 0.601,0.306 1.327,0.549 2.019,0.923 0.067,0.118 0.199,0.21 0.245,0.333 0.632,0.204 1.045,0.627 1.587,0.857 0.785,0.34 1.624,0.477 2.431,0.822 0.594,0.258 1.097,0.737 1.687,0.963 0.167,0.062 0.382,0.028 0.577,0.089 0.195,0.058 0.382,0.23 0.581,0.292 0.256,0.08 0.586,0.043 0.863,0.129 0.242,0.072 0.473,0.242 0.682,0.295 0.12,0.027 0.246,-0.047 0.37,-0.02 0.292,0.063 0.538,0.296 0.806,0.36 0.448,0.1 1.237,0.365 1.814,0.507 0.148,0.037 0.263,-0.025 0.413,0.003 0.56,0.099 1.137,0.494 1.694,0.137 0.112,0.057 0.222,0.111 0.33,0.167 0.444,-0.021 0.888,0.158 1.363,0.172 0.135,0.002 0.304,-0.1 0.455,-0.078 0.168,0.021 0.324,0.156 0.476,0.189 0.166,0.039 0.361,-0.033 0.518,0.004 0.221,0.051 0.409,0.214 0.635,0.273 0.501,0.122 1.082,-0.038 1.506,0.302 1.195,-0.026 2.548,0.421 3.678,0.207 0.861,0.125 1.772,0.343 2.684,0.638 0.335,0.111 0.591,0.299 0.907,0.357 0.292,0.057 0.881,0.072 1.281,0.24 0.629,0.261 1.179,0.715 1.791,0.856 0.138,0.036 0.295,-0.062 0.436,-0.039 0.204,0.039 0.395,0.212 0.638,0.274 0.285,0.073 0.63,0 0.844,0.072 0.402,0.126 0.644,0.367 1.013,0.355 0.288,-0.007 0.577,-0.063 0.91,-0.056 0.792,0.025 1.469,-0.096 2.252,0.056 0.84,-0.335 1.974,0.218 2.791,-0.187 0.222,0.154 0.334,-0.027 0.558,0.129 0.705,-0.403 1.611,-0.183 2.338,-0.522 0.479,0.163 0.795,-0.166 1.301,0.094 0.437,-0.151 0.922,-0.133 1.43,-0.057 0.254,-0.189 0.587,-0.16 0.851,-0.348 1.488,0.077 2.68,-0.768 4.035,-1.107 0.829,-0.573 1.815,-0.683 2.691,-1.115 0.61,0.033 1.09,-0.329 1.679,-0.346 0.363,-0.361 0.811,-0.465 1.222,-0.671 0.564,-0.621 1.292,-0.748 1.872,-1.329 1.022,-0.447 1.836,-1.527 2.904,-1.836 0.338,-0.406 0.773,-0.515 1.206,-0.635 0.674,-0.495 1.414,-0.788 2.156,-1.083 0.415,-0.301 0.773,-0.799 1.247,-0.921 0.196,-0.28 0.387,-0.563 0.662,-0.593 0.861,-0.99 2.335,-0.646 2.95,-2.029 0.673,-0.467 1.22,-1.316 1.975,-1.536 0.265,-0.384 0.576,-0.62 0.933,-0.718 0.38,-0.592 0.827,-0.982 1.294,-1.312 0.054,-0.114 0.11,-0.22 0.168,-0.332 0.992,-0.991 1.981,-1.997 3.053,-2.751 0.47,-1.388 1.822,-1.5 2.316,-2.816 0.128,-0.096 0.262,-0.182 0.392,-0.26 0.084,-0.367 0.368,-0.41 0.566,-0.599 0.555,-0.539 0.968,-1.237 1.478,-1.89 0.39,-0.502 0.948,-0.872 1.352,-1.335 0.989,-1.137 1.816,-2.418 2.834,-3.432 0.642,-1.32 1.709,-2.431 2.321,-3.743 0.069,-0.156 0.083,-0.298 0.167,-0.436 0.074,-0.123 0.223,-0.174 0.315,-0.309 0.157,-0.242 0.173,-0.615 0.336,-0.864 0.12,-0.195 0.428,-0.392 0.582,-0.743 0.169,-0.378 0.091,-0.754 0.318,-1.133 0.452,-0.748 0.979,-1.729 1.342,-2.636 0.103,-0.267 0.119,-0.55 0.292,-0.782 0.164,-0.223 0.378,-0.426 0.546,-0.764 0.302,-0.642 0.634,-1.17 1.061,-1.789 0.401,-0.578 0.86,-1.321 1.089,-1.936 0.045,-0.122 0.018,-0.26 0.088,-0.372 0.238,-0.408 0.754,-0.76 0.937,-1.439 0.079,-0.292 -0.073,-0.685 0.155,-1.116 0.102,-0.203 0.325,-0.309 0.419,-0.514 0.054,-0.134 0.011,-0.292 0.062,-0.434 0.105,-0.303 0.478,-0.579 0.377,-0.947 0.135,-0.191 0.3,-0.277 0.46,-0.392 -0.125,-0.43 0.257,-1.024 -0.015,-1.404 0.41,-0.085 0.55,-0.991 0.937,-1.129 0.066,-0.42 0.035,-0.995 0.2,-1.508 0.044,-0.137 0.174,-0.268 0.207,-0.409 0.045,-0.185 -0.028,-0.386 0.026,-0.561 0.074,-0.243 0.26,-0.423 0.334,-0.659 0.199,-0.61 0.226,-1.229 0.199,-1.714 0.55,-1.209 1.495,-2.442 1.284,-3.544 0.059,-0.132 0.152,-0.175 0.23,-0.25 -0.07,-0.341 0.086,-0.763 -0.012,-1.093 0.593,-1 0.551,-2.118 1.009,-3.01 0.065,-0.125 0.179,-0.233 0.23,-0.355 C 4.564,55.973 4.541,55.395 4.719,54.935 4.763,54.821 4.895,54.733 4.93,54.625 5.092,54.08 4.996,53.163 4.943,52.561 4.922,52.361 4.859,52.142 4.883,51.96 4.92,51.712 5.093,51.481 5.096,51.236 5.1,50.931 4.965,50.671 5.016,50.372 5.063,50.135 5.189,49.905 5.272,49.669 5.27,48.487 4.973,47.222 5.482,45.992 5.312,45.61 5.467,45.124 5.533,44.669 5.292,43.041 5.437,41.289 5.672,39.505 5.425,38.987 5.337,38.435 5.25,37.786 5.185,37.31 5.202,36.929 5.155,36.441 5.135,36.229 5.032,36.06 5.035,35.861 5.047,35.257 5.136,34.605 5.107,33.982 5.104,33.904 4.976,33.824 4.965,33.75 4.957,33.679 5.047,33.568 5.051,33.484 5.055,33.333 4.949,33.167 4.949,33.07 4.949,32.958 5.055,32.851 5.056,32.759 5.067,32.423 4.806,32.226 4.73,31.873 4.626,31.345 4.735,30.748 4.306,30.355 4.474,29.306 3.793,28.535 3.895,27.503 3.831,27.347 3.727,27.212 3.646,27.068 3.862,25.934 3.276,25.056 2.986,24.085 3.042,23.978 3.098,23.87 3.154,23.759 3.123,23.584 2.935,23.464 3.115,23.22 2.859,22.642 2.243,22.175 2.341,21.479 2.274,21.421 2.285,21.338 2.178,21.292 2.131,20.905 2.205,20.482 1.979,20.155 2.133,19.921 2.041,19.767 2.066,19.577 1.009,18.739 1.523,17.393 0.495,16.548 0.334,15.723 -0.167,14.934 -0.354,14.04 c -0.1,-0.463 -0.537,-0.901 -0.635,-1.409 0.057,-0.109 0.114,-0.218 0.168,-0.328 C -1.094,12.149 -1.3,11.979 -1.187,11.704 -1.388,11.622 -1.498,11.504 -1.599,11.387 -1.58,10.532 -2.662,9.86 -2.245,8.985 -2.526,8.6 -3.04,8.395 -2.63,7.907 c 0.187,-0.221 0.673,-0.168 0.903,-0.409 0.212,0.403 0.571,0.76 0.592,1.228 0.301,0.26 0.445,0.572 0.597,0.881 -0.081,-0.008 -0.157,-0.004 -0.226,0.03 0,0.164 0.06,0.303 0.083,0.453 -0.19,0.266 -0.597,-0.144 -0.848,-0.064 0.023,0.494 0.895,0.838 1.234,1.041 -0.123,-0.261 0.113,-0.545 0.171,-0.831 0.023,0.025 0.035,0.053 0.061,0.076 -0.026,0.195 -0.022,0.381 -0.1,0.592 0.053,0.147 0.161,0.275 0.176,0.435 0.535,0.285 0.732,0.681 0.703,1.151 0.628,1.131 0.806,2.407 1.536,3.505 0.097,0.376 -0.005,0.81 0.387,1.09 0.224,0.922 0.608,1.795 0.911,2.691 0.039,0.086 -0.101,0.229 -0.061,0.315 0.213,0.332 0.315,0.76 0.407,1.148 0.017,0.073 0.143,0.132 0.156,0.176 0.029,0.123 -0.04,0.277 -0.004,0.398 0.053,0.16 0.201,0.298 0.254,0.479 0.051,0.165 0.02,0.362 0.078,0.533 0.1,0.297 0.346,0.551 0.408,0.852 0.023,0.115 -0.051,0.274 -0.026,0.434 0.028,0.166 0.187,0.347 0.197,0.492 0.008,0.141 -0.103,0.306 -0.083,0.455 0.04,0.312 0.355,0.605 0.211,0.95 0.641,0.7 0.296,1.724 0.654,2.513 -0.013,0.123 -0.022,0.245 -0.099,0.395 0.264,0.355 0.241,0.858 0.367,1.323 0.059,0.227 0.242,0.434 0.249,0.674 0.004,0.134 -0.111,0.226 -0.118,0.335 -0.027,0.227 0.033,0.634 0.111,0.852 0.036,0.098 0.159,0.172 0.196,0.296 0.079,0.295 -0.033,0.667 0.208,0.95 -0.084,0.16 -0.054,0.281 -0.181,0.454 0.048,0.357 0.342,0.632 0.154,1.066 0.138,0.183 0.151,0.41 0.349,0.574 0.307,1.247 0.711,2.463 1.045,3.703 -0.033,0.132 -0.116,0.121 -0.161,0.215 -0.123,0.787 0.189,1.72 -0.096,2.526 -0.122,0.348 -0.397,0.688 -0.442,1.064 -0.031,0.256 0.114,0.777 0.151,1.168 0.056,0.601 0.436,1.11 -0.07,1.794 0.027,0.267 0.283,0.691 -0.108,0.888 0.105,0.428 -0.268,1.009 -0.07,1.403 -0.009,0.148 -0.068,0.11 -0.139,0.275 0.08,0.994 -0.231,2.113 -0.435,3.195 0.389,0.27 -0.092,0.65 -0.209,1.086 -0.099,0.384 0.146,0.582 0.099,0.891 -0.121,0.243 -0.243,0.468 -0.399,0.59 0.108,0.454 0.142,0.936 0.166,1.424 -0.487,0.548 0.024,1.175 -0.546,1.753 0.123,0.42 -0.022,0.818 -0.208,1.279 -0.056,0.15 0,0.417 -0.062,0.611 -0.034,0.124 -0.142,0.238 -0.161,0.32 -0.067,0.305 0.115,0.668 -0.26,1.001 -0.048,0.145 0.168,0.212 0.115,0.359 -0.242,0.641 -0.459,1.262 -0.666,2.088 -0.126,0.503 -0.104,1.063 -0.268,1.495 -0.073,0.209 -0.223,0.358 -0.278,0.556 -0.174,0.578 -0.113,1.138 -0.33,1.815 -0.069,0.125 -0.144,0.231 -0.24,0.275 0.171,0.52 -0.394,1.287 -0.35,1.853 -0.696,1.262 -0.918,2.641 -0.815,3.748 -0.294,0.669 -0.699,1.064 -0.699,1.572 -0.115,0.399 -0.761,0.74 -0.858,1.101 -0.082,0.299 0.219,0.563 0.353,0.87 0.56,-0.681 0.91,-1.681 1.357,-2.282 C 2.33,73.836 2.744,73.439 2.517,73.25 2.601,73.144 2.75,73.23 2.853,73.174 3.286,72.314 4.286,71.378 4.111,70.496 4.662,69.806 4.796,69.097 5.02,68.33 5.095,68.07 5.273,67.839 5.338,67.602 5.515,66.988 5.561,66.436 5.822,65.868 5.879,65.752 5.992,65.654 6.046,65.533 6.165,65.237 6.153,64.902 6.265,64.604 6.41,64.227 6.593,63.848 6.75,63.463 6.938,62.997 7.262,62.579 7.431,62.125 7.526,61.864 7.454,61.515 7.535,61.234 7.609,60.971 7.78,60.752 7.855,60.507 8.081,59.789 8.312,59.06 8.424,58.321 8.822,57.32 9.167,56.335 9.391,55.348 c 0.152,-0.679 0.381,-1.21 0.547,-1.857 0.197,-0.767 0.435,-1.626 0.471,-2.485 0.003,-0.121 -0.087,-0.22 -0.08,-0.336 0.04,-0.461 0.245,-0.926 0.228,-1.321 -0.009,-0.171 -0.132,-0.35 -0.132,-0.515 -0.005,-0.168 0.107,-0.332 0.1,-0.49 -0.006,-0.136 -0.129,-0.245 -0.156,-0.379 -0.018,-0.112 0.058,-0.242 0.044,-0.374 -0.057,-0.45 -0.322,-0.756 -0.055,-1.165 -0.055,-0.688 0.229,-1.312 0.232,-2.012 0.002,-0.398 -0.194,-0.819 -0.169,-1.228 0.011,-0.167 0.149,-0.332 0.161,-0.511 0.006,-0.116 -0.092,-0.222 -0.074,-0.336 0.024,-0.213 0.195,-0.414 0.219,-0.632 0.048,-0.396 -0.12,-0.736 -0.011,-1.145 0.022,-0.087 0.118,-0.174 0.138,-0.278 0.107,-0.484 -0.021,-0.99 0.111,-1.477 -0.055,-0.117 -0.041,-0.251 -0.176,-0.335 0.02,-0.108 0.065,-0.223 0.06,-0.32 -0.212,-0.686 0.045,-1.525 -0.1,-2.23 -0.088,-0.06 -0.142,-0.13 -0.197,-0.199 0.245,-0.353 -0.083,-0.52 0.085,-0.85 C 10.604,34.808 10.513,34.76 10.481,34.692 10.425,33.55 10.336,32.42 10.164,31.314 9.788,31.047 9.913,30.641 9.839,30.206 9.748,29.665 9.387,29.157 9.433,28.667 9.451,28.489 9.58,28.331 9.595,28.152 9.621,27.87 9.424,27.548 9.641,27.285 9.462,26.909 9.609,26.511 9.53,26.137 9.401,25.534 8.978,24.978 9.126,24.296 8.762,23.871 8.736,23.331 8.469,22.873 8.694,22.369 8.453,22.021 8.533,21.568 7.997,20.793 8.143,19.793 7.604,19.012 7.712,18.717 7.591,18.398 7.511,18.123 7.409,17.77 7.134,17.316 7.065,16.958 7.005,16.639 7.181,16.183 6.795,15.928 6.813,15.726 6.776,15.541 6.798,15.336 6.673,15.063 6.492,14.831 6.37,14.522 6.308,14.366 6.374,14.157 6.296,13.986 6.193,13.771 5.968,13.609 5.863,13.375 5.664,12.922 5.516,12.386 5.402,11.848 5.303,11.387 5.212,11.065 5.31,10.567 4.845,9.841 4.526,9.068 3.944,8.383 3.75,7.253 3.297,6.209 2.326,5.333 m -4.2,1.728 c 0.016,0.129 0.061,0.25 0.115,0.366 C -1.854,7.36 -1.915,7.185 -1.88,7.056 c 10e-4,0.002 0.005,0.003 0.006,0.005"
             style="fill:#3297d4;fill-opacity:1;fill-rule:nonzero;stroke:none"
             id="path1535"
             inkscape:connector-curvature="0" /></g></g></g></g></svg>